<?xml version="1.0" encoding="UTF-8" standalone="no"?>
<!DOCTYPE svg PUBLIC "-//W3C//DTD SVG 1.1//EN" "http://www.w3.org/Graphics/SVG/1.1/DTD/svg11.dtd">
<svg width="100%" height="100%" viewBox="0 0 80 80" version="1.1" xmlns="http://www.w3.org/2000/svg" xmlns:xlink="http://www.w3.org/1999/xlink" xml:space="preserve" xmlns:serif="http://www.serif.com/" style="fill-rule:evenodd;clip-rule:evenodd;stroke-linejoin:round;stroke-miterlimit:2;">
    <g transform="matrix(133.333,0,0,133.333,0.104376,85.3629)">
        <path d="M0.186,-0.09L0.104,-0.148L0.151,-0.216C0.16,-0.229 0.172,-0.243 0.185,-0.256C0.198,-0.269 0.212,-0.282 0.226,-0.294C0.239,-0.305 0.251,-0.315 0.262,-0.323L0.259,-0.329C0.246,-0.33 0.23,-0.331 0.213,-0.333C0.195,-0.334 0.177,-0.337 0.159,-0.34C0.141,-0.343 0.125,-0.348 0.11,-0.353L0.033,-0.381L0.067,-0.476L0.144,-0.448C0.159,-0.443 0.175,-0.435 0.191,-0.426C0.207,-0.417 0.223,-0.407 0.238,-0.397C0.253,-0.386 0.265,-0.377 0.275,-0.368L0.28,-0.372C0.277,-0.385 0.273,-0.401 0.268,-0.419C0.263,-0.436 0.258,-0.455 0.255,-0.474C0.252,-0.493 0.25,-0.51 0.25,-0.527L0.25,-0.61L0.35,-0.61L0.35,-0.527C0.35,-0.51 0.348,-0.493 0.345,-0.474C0.342,-0.455 0.338,-0.436 0.333,-0.419C0.328,-0.401 0.324,-0.385 0.319,-0.372L0.324,-0.368C0.335,-0.377 0.347,-0.386 0.362,-0.397C0.377,-0.407 0.392,-0.417 0.408,-0.426C0.424,-0.435 0.44,-0.443 0.455,-0.448L0.533,-0.476L0.567,-0.381L0.489,-0.353C0.475,-0.348 0.459,-0.343 0.441,-0.34C0.423,-0.337 0.405,-0.334 0.388,-0.333C0.37,-0.331 0.354,-0.33 0.341,-0.329L0.338,-0.322C0.349,-0.314 0.361,-0.304 0.375,-0.293C0.388,-0.281 0.402,-0.269 0.415,-0.256C0.428,-0.243 0.439,-0.229 0.448,-0.216L0.496,-0.148L0.414,-0.09L0.365,-0.159C0.356,-0.172 0.348,-0.187 0.34,-0.204C0.332,-0.221 0.325,-0.239 0.319,-0.256C0.312,-0.273 0.307,-0.287 0.303,-0.3L0.296,-0.3C0.293,-0.287 0.288,-0.273 0.281,-0.256C0.274,-0.239 0.267,-0.221 0.259,-0.204C0.251,-0.187 0.242,-0.172 0.233,-0.159L0.186,-0.09Z" style="fill:rgb(254,225,30);fill-rule:nonzero;"/>
    </g>
</svg>
