<?xml version="1.0" standalone="no"?>
<!DOCTYPE svg PUBLIC "-//W3C//DTD SVG 1.1//EN" "http://www.w3.org/Graphics/SVG/1.1/DTD/svg11.dtd">
<svg xmlns="http://www.w3.org/2000/svg">
<defs >
<font id="Rosario" horiz-adv-x="493" ><font-face
    font-family="Rosario Light"
    units-per-em="1000"
    panose-1="0 0 0 0 0 0 0 0 0 0"
    ascent="977"
    descent="-235"
    alphabetic="0" />
<glyph unicode=" " horiz-adv-x="234" />
<glyph unicode="!" horiz-adv-x="246" d="M148 726H248L147 216H105L148 726ZM165 56Q165 28 143 7T95 -14Q72 -14 56 2T40 40Q40 60 50 75T76 100T111 110Q134 110 149 95T165 56Z" />
<glyph unicode="&quot;" horiz-adv-x="300" d="M114 429H82L80 545L105 720H178L152 542L114 429ZM249 429H217L214 545L240 720H312L287 542L249 429Z" />
<glyph unicode="#" horiz-adv-x="640" d="M427 295H561V258H423L386 0H339L375 258H240L203 0H158L194 258H55V295H199L216 427H81V467H222L254 708H302L268 467H405L437 708H481L449 467H585V427H445L427 295ZM246 295H381L399 427H262L246 295Z" />
<glyph unicode="$" horiz-adv-x="534" d="M346 691Q376 691 400 688T447 675T497 651L464 595Q441 612 425 620T392 632T349 636Q310 636 274 622T214 580T191 512Q191 482 210 461T261 422T326 387T392 346T442 291T462 211Q462 144 430 95T344 18T225 -9Q179
-9 133 5T42 41L73 99Q106 79 127 68T171 51T230 46Q273 46 310 70T370 131T394 210Q394 246 375 270T325 311T260 345T196 383T146 433T126 508Q126 566 157 607T239 669T346 691ZM227 -3L193 -143H132L191 -3H227ZM324 665L357 800H420L361 665H324Z" />
<glyph unicode="%" horiz-adv-x="866" d="M674 729H725L244 -11H195L674 729ZM272 729Q320 729 348 709T388 654T401 577Q401 504 379 444T312 347T202 310Q154 310 126 330T86 384T73 462Q73 534 96 594T163 692T272 729ZM261 689Q213 689 183 657T138 574T124
463Q124 417 142 384T213 351Q263 351 293 383T336 469T350 583Q350 627 332 658T261 689ZM696 409Q744 409 772 389T813 334T825 255Q825 184 802 124T735 27T626 -10Q578 -10 550 10T510 64T498 141Q498 213 520 274T587 372T696 409ZM685 368Q637 368 607 336T562
252T547 141Q547 97 566 65T637 32Q687 32 716 64T759 148T773 262Q773 306 756 337T685 368ZM272 729H703L698 689H261L272 729Z" />
<glyph unicode="&amp;" horiz-adv-x="624" d="M231 415L250 361Q195 355 159 328T104 262T86 184Q86 152 101 121T150 69T235 48Q300 48 339 68T397 124T415 202Q415 240 403 278T367 354L414 389Q444 355 459 312T475 224Q475 180 461 139T415 64T333 11T212
-9Q140 -9 96 16T32 80T12 161Q12 210 35 261T107 354T231 415ZM384 729Q417 729 447 720T502 687L461 640Q424 674 388 674Q351 674 323 642T278 555T262 430Q262 357 282 290T339 171T427 88Q453 72 494 61T576 49Q588 49 598 50T618 54L625 -5Q612 -8 599 -8T574
-9Q544 -9 506 -2T431 18T369 47Q311 86 270 146T208 283T186 451Q186 547 215 608T290 699T384 729ZM375 411H599L579 354H367L375 411Z" />
<glyph unicode="&apos;" horiz-adv-x="157" d="M143 542L105 429H73L70 545L96 720H168L143 542Z" />
<glyph unicode="(" horiz-adv-x="323" d="M344 727Q239 610 186 469T133 184Q133 104 152 25T218 -130L167 -137Q116 -59 91 27T66 204Q66 302 94 396T174 576T293 734L344 727Z" />
<glyph unicode=")" horiz-adv-x="328" d="M289 392Q289 294 261 200T183 21T63 -137L11 -130Q116 -14 169 127T222 412Q222 493 203 572T137 727L188 734Q239 656 264 569T289 392Z" />
<glyph unicode="*" horiz-adv-x="459" d="M269 726H329L297 594H265L269 726ZM317 582L439 638L453 576L323 548L317 582ZM132 635L247 580L233 554L108 575L132 635ZM234 529L259 507L177 394L135 430L234 529ZM282 507L310 525L386 429L332 393L282 507Z" />
<glyph unicode="+" horiz-adv-x="642" d="M314 0H254L283 215H64L73 274H292L321 486H381L352 273H573L564 214H343L314 0Z" />
<glyph unicode="," horiz-adv-x="259" d="M166 44Q166 10 150 -20T108 -75T53 -120L25 -91Q52 -69 64 -56T80 -35T84 -19Q84 -9 74 0T53 22T42 51Q42 83 61 96T106 110Q137 110 151 91T166 44Z" />
<glyph unicode="-" horiz-adv-x="330" d="M29 228L39 287H291L281 228H29Z" />
<glyph unicode="." horiz-adv-x="264" d="M173 56Q173 28 152 7T105 -14Q81 -14 66 1T51 40Q51 58 60 73T85 98T119 108Q142 108 157 94T173 56Z" />
<glyph unicode="/" horiz-adv-x="293" d="M-12 -12L236 720H287L43 -12H-12Z" />
<glyph unicode="0" horiz-adv-x="509" d="M281 499Q349 499 392 469T456 389T477 275Q477 219 459 168T408 75T329 10T227 -14Q161 -14 118 17T53 99T31 211Q31 259 47 309T94 403T172 472T281 499ZM278 447Q227 447 192 425T136 367T106 287T96 197Q96 127 127
83T231 38Q284 38 318 60T374 121T403 204T412 294Q412 340 399 374T357 428T278 447Z" />
<glyph unicode="1" horiz-adv-x="368" d="M274 490L214 50H326L319 0H32L38 50H153L203 413L90 381L88 419L240 490H274Z" />
<glyph unicode="2" horiz-adv-x="417" d="M265 507Q318 507 354 482T390 402Q390 353 364 306T295 216T197 131T85 52H388L360 -2H0L7 46Q70 91 129 133T234 218T308 303T335 391Q335 427 312 443T255 459Q218 459 176 443T105 395L73 432Q116 468 167 487T265 507Z" />
<glyph unicode="3" horiz-adv-x="364" d="M226 509Q280 509 313 486T347 410Q347 369 325 329T266 256T183 198Q215 196 243 182T288 142T305 73Q305 12 277 -34T202 -112T98 -163T-19 -190T-132 -195L-130 -159Q-70 -156 -8 -142T108 -100T194 -31T227 65Q227
112 203 132T140 153Q126 153 110 151T75 143L62 186Q94 201 131 222T202 271T256 331T277 399Q277 427 261 443T215 460Q179 460 138 442T69 396L40 440Q81 473 131 491T226 509Z" />
<glyph unicode="4" horiz-adv-x="466" d="M316 498H396L334 53H432L411 1H326L300 -186H240L266 1H-6L-2 31L316 498ZM325 425L77 53H273L325 425Z" />
<glyph unicode="5" horiz-adv-x="340" d="M165 496H389L362 431H184L119 309Q190 275 231 224T272 100Q272 37 247 -15T176 -107T73 -173T-53 -210L-58 -173Q22 -153 78 -120T165 -35T195 91Q195 154 153 204T41 283L165 496Z" />
<glyph unicode="6" horiz-adv-x="499" d="M500 733L513 696Q432 666 361 614T237 493T154 349T124 196Q124 154 136 118T173 61T235 39Q280 39 312 67T362 137T380 221Q380 268 356 303T279 338Q242 338 200 323T115 275L133 328Q170 363 214 380T299 397Q358
397 393 374T444 313T460 234Q460 185 441 141T389 61T312 6T218 -14Q172 -14 133 7T69 71T45 181Q45 254 69 323T136 456T236 572T361 667T500 733Z" />
<glyph unicode="7" horiz-adv-x="382" d="M55 497H408L404 466L38 -183H-43L339 441H33L55 497Z" />
<glyph unicode="8" horiz-adv-x="461" d="M314 727Q350 727 380 713T430 671T449 598Q449 540 411 478T296 372L261 402Q325 440 357 492T389 590Q389 635 363 658T305 681Q270 681 243 661T200 608T185 538Q185 489 215 458T285 397Q316 376 346 350T397 290T418
207Q418 146 387 97T304 19T192 -10Q149 -10 113 5T55 52T33 131Q33 195 60 240T129 321T216 385L242 357Q178 317 140 267T102 144Q102 92 132 66T201 39Q239 39 270 59T320 112T339 186Q339 224 320 251T271 302T210 351Q184 373 161 396T124 449T110 520Q110
565 128 603T176 669T242 712T314 727Z" />
<glyph unicode="9" horiz-adv-x="509" d="M294 508Q340 508 379 487T443 423T467 313Q467 240 444 173T378 48T279 -61T155 -150T14 -219L3 -181Q84 -148 154 -98T276 16T358 150T388 297Q388 341 376 377T339 434T276 456Q232 456 199 429T148 360T130 276Q130
228 155 193T233 157Q270 157 311 173T396 220L377 166Q342 132 297 115T212 98Q157 98 121 120T68 178T51 256Q51 306 70 351T122 432T199 487T294 508Z" />
<glyph unicode=":" horiz-adv-x="247" d="M208 389Q210 361 189 339T138 316Q117 316 102 329T85 362Q83 391 105 413T155 436Q175 436 190 423T208 389ZM162 60Q164 31 142 9T92 -14Q71 -14 56 -1T39 33Q37 62 58 84T108 106Q129 106 144 93T162 60Z" />
<glyph unicode=";" horiz-adv-x="250" d="M210 374Q210 356 201 340T175 315T141 305Q118 305 103 320T88 359Q88 386 109 406T155 426Q179 426 194 412T210 374ZM106 110Q137 110 151 91T166 44Q166 10 150 -20T108 -75T53 -120L25 -91Q52 -69 64 -56T80 -35T84
-19Q84 -9 74 0T53 22T42 51Q42 83 61 96T106 110Z" />
<glyph unicode="&lt;" horiz-adv-x="630" d="M75 284L601 486L593 417L142 240L542 64L533 -4L64 200L75 284Z" />
<glyph unicode="=" horiz-adv-x="630" d="M86 364H586L579 307H79L86 364ZM61 177H560L552 118H52L61 177Z" />
<glyph unicode="&gt;" horiz-adv-x="630" d="M44 64L494 240L95 417L103 486L573 284L562 200L35 -4L44 64Z" />
<glyph unicode="?" horiz-adv-x="421" d="M271 720Q308 720 340 705T394 661T415 587Q415 539 399 506T357 452T304 416Q258 393 225 371T192 310Q192 298 198 288T218 270T254 263L237 209Q208 206 184 219T147 254T133 301Q133 345 154 373T206 421T267 457Q305
477 326 501T347 577Q347 627 323 647T264 667Q214 667 172 631L165 683Q188 702 215 711T271 720ZM176 106Q198 106 213 91T229 56Q229 29 207 8T158 -14Q136 -14 121 1T106 39Q106 67 127 86T176 106Z" />
<glyph unicode="@" horiz-adv-x="1013" d="M550 724Q635 724 711 698T845 622T936 498T969 331Q969 270 953 210T905 102T829 24T728 -5Q696 -5 669 2T624 28T603 82H599Q580 39 540 13T455 -14Q403 -14 371 13T325 87T310 189Q310 245 325 300T371 401T449 473T560
500Q589 500 614 491T664 457L684 492H718Q703 394 693 327T675 216T665 147T660 108T658 86Q658 65 674 54T729 42Q773 42 807 67T865 133T901 226T914 331Q914 414 886 478T807 586T691 654T550 677Q441 677 358 636T220 526T136 373T108 202Q108 127 129 57T194
-68T303 -156T457 -189Q507 -189 558 -175L572 -220Q544 -227 515 -231T457 -235Q355 -235 280 -199T154 -100T78 40T53 204Q53 280 73 355T133 496T233 614T372 694T550 724ZM559 448Q505 448 470 423T413 358T384 273T375 189Q375 128 397 85T467 41Q501 41 528
62T575 118T608 199T627 293L645 423Q604 448 559 448Z" />
<glyph unicode="A" horiz-adv-x="616" d="M431 720L569 0H495L444 270H203L78 0H20L355 720H431ZM373 625L229 320H433L373 625Z" />
<glyph unicode="B" horiz-adv-x="587" d="M551 566Q551 523 534 489T486 431T415 393Q471 376 503 340T535 238Q535 163 510 116T442 44T342 10T223 0H63L151 653L155 720H363Q403 720 437 712T497 687T537 640T551 566ZM481 576Q481 612 464 631T418 659T358
667H221L188 417H288Q346 417 389 432T456 481T481 576ZM464 242Q464 287 441 312T380 348T301 359H178L139 53H243Q309 53 358 70T436 129T464 242Z" />
<glyph unicode="C" horiz-adv-x="584" d="M324 -9Q257 -9 208 16T125 85T76 185T60 303Q60 378 84 453T155 590T271 690T432 728Q466 728 499 721T564 696T619 647L576 607Q542 643 503 658T421 673Q353 673 300 640T209 552T152 432T132 302Q132 236 154 180T221
90T335 56Q384 56 431 67T521 103L540 57Q513 36 476 21T400 -1T324 -9Z" />
<glyph unicode="D" horiz-adv-x="687" d="M635 433Q635 355 616 278T554 138T446 38T284 0H63L151 653L155 720H389Q457 720 504 697T580 633T622 541T635 433ZM566 434Q566 477 558 518T529 593T474 647T387 667H221L139 53H289Q348 53 393 77T471 142T525 233T556
335T566 434Z" />
<glyph unicode="E" horiz-adv-x="496" d="M154 720H550L542 667H218L184 394H436L427 342H176L137 53H461L454 0H63L150 653L154 720Z" />
<glyph unicode="F" horiz-adv-x="469" d="M152 720H517L510 667H218L184 395H417L409 344H175L128 0H61L148 653L152 720Z" />
<glyph unicode="G" horiz-adv-x="666" d="M422 729Q455 729 494 721T570 694T632 644L587 597Q564 624 538 640T481 665T415 673Q340 673 287 637T198 543T147 417T130 284Q130 235 141 193T175 120T235 71T327 54Q379 54 421 78T490 144T524 240L532 307H350L358
364H609Q595 270 586 182T569 1H532L514 75Q472 33 419 12T309 -9Q221 -9 166 31T86 137T60 279Q60 358 82 437T149 583T262 689T422 729Z" />
<glyph unicode="H" horiz-adv-x="671" d="M487 0L534 350H177L130 0H61L150 653L153 720H228L186 402H542L585 720H652L554 0H487Z" />
<glyph unicode="I" horiz-adv-x="252" d="M158 720H233L134 0H66L155 653L158 720Z" />
<glyph unicode="J" horiz-adv-x="252" d="M160 720H235L136 22Q130 -24 118 -66T85 -143T27 -199T-64 -229L-75 -191Q-33 -185 -6 -160T37 -99T62 -25T75 45L157 651L160 720Z" />
<glyph unicode="K" horiz-adv-x="558" d="M228 720L130 0H61L150 653L153 720H228ZM532 720H593L293 411L513 0H429L214 397L532 720Z" />
<glyph unicode="L" horiz-adv-x="478" d="M231 720L141 53H439L430 0H63L151 653L154 720H231Z" />
<glyph unicode="M" horiz-adv-x="767" d="M240 720L358 190Q360 179 364 166T373 130Q383 152 392 166T408 194L667 720H749L651 0H582L650 504Q653 527 655 553T661 615Q649 580 636 554T612 504L365 -3H331L223 501Q216 532 212 557T200 617Q196 580 192 553T184
501L115 0H61L149 654L152 720H240Z" />
<glyph unicode="N" horiz-adv-x="670" d="M245 720L481 230Q491 210 499 191T516 144Q518 171 521 187T527 220L597 720H650L552 -5H522L237 578Q230 594 223 610T207 653Q204 625 201 606T195 570L119 0H63L152 653L155 720H245Z" />
<glyph unicode="O" horiz-adv-x="709" d="M306 -9Q239 -9 192 15T116 80T74 175T60 286Q60 363 81 441T145 584T254 689T410 729Q500 729 554 689T632 582T656 437Q656 356 635 277T570 133T461 30T306 -9ZM318 46Q376 46 420 69T496 133T548 224T577 328T587
432Q587 495 570 550T513 639T402 674Q344 674 300 650T224 586T172 496T141 391T131 287Q131 226 148 171T207 81T318 46Z" />
<glyph unicode="P" horiz-adv-x="539" d="M156 720H340Q398 720 444 704T518 649T546 544Q546 469 515 410T426 317T290 282H172L134 0H65L153 653L156 720ZM224 667L180 333H290Q348 333 389 359T453 430T475 529Q475 597 438 632T332 667H224Z" />
<glyph unicode="Q" horiz-adv-x="709" d="M1091 -183Q1032 -202 986 -213T880 -225Q818 -225 756 -204T634 -152T518 -89T412 -36Q390 -27 370 -22T338 -19Q235 -17 174 25T87 136T60 288Q60 365 81 443T145 586T253 690T408 729Q498 729 552 690T631 585T656
441Q656 349 630 261T553 107T425 10Q440 4 458 -3T489 -20Q530 -44 584 -71T696 -122T811 -162T916 -177Q945 -177 971 -174T1024 -165T1081 -150L1091 -183ZM317 45Q375 45 419 69T496 133T547 224T576 329T586 434Q586 481 577 524T546 601T490 654T401 674Q343
674 298 651T221 587T169 497T140 393T130 288Q130 226 147 171T205 80T317 45Z" />
<glyph unicode="R" horiz-adv-x="570" d="M131 0H61L150 653L153 720H356Q406 720 450 702T523 647T551 551Q551 501 531 455T466 376T350 328L533 0H448L242 366H259Q361 366 420 411T480 538Q480 604 443 635T343 667H221L131 0Z" />
<glyph unicode="S" horiz-adv-x="513" d="M341 729Q371 729 395 726T442 713T492 689L459 633Q436 650 420 658T387 670T344 674Q305 674 269 660T209 618T186 550Q186 515 205 490T256 446T321 406T387 361T437 299T457 211Q457 144 425 95T339 18T220 -9Q174
-9 128 5T37 41L68 99Q101 79 122 68T166 51T225 46Q268 46 305 70T365 131T389 210Q389 251 370 278T320 326T255 365T191 407T141 463T121 546Q121 604 152 645T234 707T341 729Z" />
<glyph unicode="T" horiz-adv-x="509" d="M54 720H553L546 667H330L240 0H173L263 667H45L54 720Z" />
<glyph unicode="U" horiz-adv-x="627" d="M191 720L126 243Q125 228 124 216T123 192Q123 153 135 120T179 66T269 46Q338 46 384 72T456 147T492 265L553 720H610L544 246Q535 180 504 122T415 27T265 -9Q199 -9 158 7T93 52T61 113T52 179Q52 190 53 202T56
226L113 654L117 720H191Z" />
<glyph unicode="V" horiz-adv-x="495" d="M120 720Q148 572 174 424T229 128Q277 227 322 325T414 523T506 720H558L221 -4H190L49 720H120Z" />
<glyph unicode="W" horiz-adv-x="753" d="M120 720Q125 682 131 632T145 522T160 400T176 272T191 145Q216 204 242 267T293 393T341 517T383 628T418 720H462Q467 682 473 632T487 523T502 401T518 272T533 145Q556 202 581 265T631 393T680 517T724 629T760
720H814L525 -4H484Q479 32 473 83T459 193T443 317T427 443T410 561Q388 506 364 445T315 320T267 198T223 86T187 -4H145L49 720H120Z" />
<glyph unicode="X" horiz-adv-x="534" d="M482 720H558L50 0H-24L482 720ZM166 720L483 0H404L90 720H166Z" />
<glyph unicode="Y" horiz-adv-x="453" d="M126 720L262 429L457 720H517L277 374L227 0H156L207 374L46 720H126Z" />
<glyph unicode="Z" horiz-adv-x="525" d="M105 720H538L524 656L65 53H457L440 0H-17L-3 59L458 667H98L105 720Z" />
<glyph unicode="[" horiz-adv-x="341" d="M230 676L121 -85H255L247 -129H54L177 720H371L364 676H230Z" />
<glyph unicode="\" horiz-adv-x="359" d="M17 720H70L308 0H260L17 720Z" />
<glyph unicode="]" horiz-adv-x="335" d="M-9 -126L-1 -82H133L243 678H107L115 720H308L184 -126H-9Z" />
<glyph unicode="^" horiz-adv-x="618" d="M335 417L96 0H25L301 487H385L524 0H456L335 417Z" />
<glyph unicode="_" horiz-adv-x="445" d="M-26 -120L-19 -87H465L458 -120H-26Z" />
<glyph unicode="`" horiz-adv-x="273" d="M217 732L285 587H220L107 732H217Z" />
<glyph unicode="a" horiz-adv-x="507" d="M416 492H450Q435 394 425 327T408 216T398 147T393 108T391 86Q391 65 399 55T429 44Q439 44 447 45T464 50L472 7Q459 0 444 -6T414 -12Q374 -12 354 15T336 82H332Q312 39 272 13T188 -14Q136 -14 104 13T57 87T42
189Q42 245 57 300T103 401T181 473T292 500Q326 500 353 488T408 447V402Q379 427 352 437T292 448Q238 448 202 423T146 358T116 273T107 189Q107 128 129 85T200 41Q233 41 260 62T307 118T341 199T360 293L377 425L416 492Z" />
<glyph unicode="b" horiz-adv-x="485" d="M46 29L132 704L135 762H202L157 424Q168 435 190 452T241 484T304 499Q354 499 384 473T428 402T442 301Q442 231 424 173T373 73T296 9T199 -14Q159 -14 118 -4T46 29L69 72Q110 48 135 43T192 38Q242 38 277 60T334
118T366 199T377 288Q377 353 358 395T295 437Q265 437 236 425T185 396T149 367L104 40L46 29Z" />
<glyph unicode="c" horiz-adv-x="419" d="M382 399Q355 424 331 433T286 443Q240 443 207 423T151 368T118 293T107 211Q107 124 138 84T227 43Q254 43 286 51T354 76L377 37Q337 10 294 -2T214 -14Q171 -14 132 7T67 77T42 202Q42 248 55 299T97 396T173 470T290
499Q323 499 357 488T422 447L382 399Z" />
<glyph unicode="d" horiz-adv-x="506" d="M415 708L418 761H484Q465 624 448 506T419 297T399 152T391 89Q391 66 399 55T429 44Q439 44 447 45T464 50L472 7Q459 0 444 -6T414 -12Q374 -12 354 15T336 82H332Q312 39 272 13T188 -14Q136 -14 104 13T57 87T42
189Q42 245 57 300T103 401T181 473T292 500Q326 500 353 488T408 447V402Q379 427 352 437T292 448Q238 448 202 423T146 358T116 273T107 189Q107 128 129 85T200 41Q233 41 260 62T307 118T341 199T360 293L415 708Z" />
<glyph unicode="e" horiz-adv-x="448" d="M291 499Q321 499 349 490T396 460T415 404Q415 345 386 306T308 245T205 214T97 206V253Q130 246 173 252T257 276T325 324T352 392Q352 421 330 435T280 449Q238 449 206 428T153 371T120 293T109 209Q109 125 146 86T244
47Q272 47 304 54T370 76L392 37Q364 18 340 7T294 -8T258 -13T232 -14Q166 -14 125 16T64 98T44 209Q44 260 59 311T104 404T181 473T291 499Z" />
<glyph unicode="f" horiz-adv-x="253" d="M-87 -172Q-47 -179 -19 -169T26 -131T48 -61L115 434H49L56 486Q65 486 79 487T105 496T122 525Q133 575 148 619T188 696T247 748T332 767Q376 767 396 756T439 730L405 682Q394 696 376 705T342 714Q294 714 265 696T220
645T197 572T184 486H293L286 434H177L108 -68Q95 -162 38 -203T-100 -225L-87 -172Z" />
<glyph unicode="g" horiz-adv-x="483" d="M416 492H450L380 11Q374 -32 362 -74T325 -152T259 -208T154 -230Q120 -230 91 -221T41 -202T17 -191L47 -132Q71 -157 100 -167T140 -178Q198 -178 234 -155T289 -92T315 -6L325 62H321Q307 34 270 10T188 -14Q136 -14
104 13T57 87T42 189Q42 245 57 300T103 401T181 473T292 500Q326 500 353 488T408 447V402Q379 427 352 437T292 448Q238 448 202 423T146 358T116 273T107 189Q107 128 129 85T200 41Q233 41 260 62T307 118T341 199T360 293L377 425L416 492Z" />
<glyph unicode="h" d="M204 761L157 423Q185 450 224 474T311 499Q344 499 373 488T421 448T440 366Q440 348 437 324L404 60L405 0H333L370 290Q372 304 373 320T375 351Q375 373 370 393T350 427T304 440Q276 440 251 430T204 406T170 380T151 365L101 0H39L134
703L136 761H204Z" />
<glyph unicode="i" horiz-adv-x="226" d="M216 657Q216 635 199 619T159 603Q140 603 127 614T114 644Q114 664 131 682T171 700Q191 700 203 687T216 657ZM175 486L117 60L116 0H47L104 428L106 486H175Z" />
<glyph unicode="j" horiz-adv-x="230" d="M219 657Q219 636 202 619T162 601Q141 601 130 614T118 644Q118 665 134 682T173 699Q194 699 206 687T219 657ZM178 486L112 4Q108 -29 98 -67T69 -140T23 -199T-46 -230L-55 -183Q-11 -164 9 -135T37 -71T50 -1L110
427L112 486H178Z" />
<glyph unicode="k" horiz-adv-x="477" d="M318 499Q363 499 391 483T433 443T447 393Q447 338 405 293T272 225Q301 173 334 113T408 0H335Q289 61 254 129T183 256Q238 259 284 275T357 318T385 381Q385 409 363 424T311 440Q289 440 263 431T208 402T148 354V407Q167
428 194 449T253 484T318 499ZM211 761L106 0H45L142 703L145 761H211Z" />
<glyph unicode="l" horiz-adv-x="222" d="M210 761L116 60L114 0H45L142 703L143 761H210Z" />
<glyph unicode="m" horiz-adv-x="764" d="M153 496Q155 493 157 479T160 449T162 420Q180 437 203 455T252 486T306 499Q347 499 379 482T431 413Q450 430 474 450T526 484T585 499Q604 499 626 495T669 478T703 438T716 365Q716 357 716 347T714 324L679 61L677
0H610L648 288Q650 302 651 317T653 349Q653 371 648 391T627 426T581 440Q544 440 506 416T437 365L391 0H329L366 286Q368 301 370 319T372 353Q372 375 367 394T347 427T301 440Q279 440 255 429T210 404T174 379T158 367L109 0H48L95 361Q98 379 98 396Q98
450 88 473T82 488L153 496Z" />
<glyph unicode="n" horiz-adv-x="495" d="M153 496Q154 493 157 470T162 421Q181 438 204 456T257 486T322 499Q340 499 361 495T402 478T434 438T447 366Q447 349 444 325L409 60L408 0H339L379 292Q381 307 383 323T385 355Q385 376 380 395T359 427T312 440Q284
440 259 430T212 406T178 380T159 365L110 0H48L95 347Q97 361 98 373T99 396Q99 435 94 457T84 486T82 488L153 496Z" />
<glyph unicode="o" horiz-adv-x="501" d="M218 -14Q158 -14 120 17T63 98T44 206Q44 258 59 309T104 404T178 473T283 499Q343 499 381 468T438 388T457 280Q457 228 442 176T397 81T322 12T218 -14ZM222 38Q265 38 297 58T350 113T381 189T392 272Q392 318 380
357T343 422T278 447Q235 447 204 427T151 372T120 296T109 214Q109 169 121 129T158 63T222 38Z" />
<glyph unicode="p" horiz-adv-x="489" d="M310 499Q359 499 389 473T433 402T447 301Q447 231 429 173T378 73T301 9T204 -14Q172 -14 149 -10T105 2L83 -168L81 -223H13L84 321Q86 341 88 361T91 401Q91 421 88 441T76 489L149 498Q154 467 155 452T156 418Q173
436 196 455T249 486T310 499ZM299 437Q269 437 241 425T189 396T153 367L114 60Q125 52 148 45T197 38Q246 38 281 60T338 118T371 199T382 288Q382 353 363 395T299 437Z" />
<glyph unicode="q" horiz-adv-x="480" d="M416 492H450L358 -166L356 -222H288L325 62H321Q307 34 270 10T188 -14Q136 -14 104 13T57 87T42 189Q42 245 57 300T103 401T181 473T292 500Q326 500 353 488T408 447V402Q379 427 352 437T292 448Q238 448 202 423T146
358T116 273T107 189Q107 128 129 85T200 41Q233 41 260 62T307 118T341 199T360 293L377 425L416 492Z" />
<glyph unicode="r" horiz-adv-x="333" d="M158 499Q164 480 166 466T169 416Q189 440 217 458T278 488T348 499L317 427Q262 427 226 402T164 338L119 0H52L97 355Q99 369 99 379T100 401Q100 416 97 442T82 488L158 499Z" />
<glyph unicode="s" horiz-adv-x="379" d="M327 418Q303 433 281 441T233 449Q207 449 183 439T144 409T128 361Q128 336 147 317T196 281T255 243T303 193T323 122Q323 78 300 48T241 2T161 -14Q118 -14 85 -4T17 26L55 76Q77 57 105 47T156 37Q181 37 205 45T246
72T263 121Q263 151 244 172T196 211T138 247T90 291T70 353Q70 404 94 436T157 483T238 499Q271 499 299 490T351 465L327 418Z" />
<glyph unicode="t" horiz-adv-x="272" d="M213 630Q200 590 191 559T173 486H285L268 434H165L122 95Q122 98 121 90T120 77Q120 57 130 47T162 37Q169 37 184 40T221 48L226 4Q236 7 226 2T195 -9T150 -15Q134 -15 113 -11T76 14T60 80Q60 86 61 96T63 112T63
116L105 434H36L44 486Q65 486 85 498T126 542T165 630H213Z" />
<glyph unicode="u" horiz-adv-x="516" d="M155 486L112 172Q111 159 110 147T109 124Q109 72 129 51T185 30Q196 30 213 31T250 43T291 77T328 147T355 264L379 421L382 486H449L399 116Q398 108 398 101T397 88Q397 58 407 50T427 42Q444 42 456 47T464 51L472
5Q480 10 471 5T446 -7T414 -14Q399 -14 380 -6T348 23T337 77H333Q332 74 325 60T302 29T255 -1T176 -14Q106 -14 77 25T47 123Q47 144 50 166L87 422L89 486H155Z" />
<glyph unicode="v" horiz-adv-x="417" d="M120 486Q125 459 134 415T154 316T178 201T200 79Q224 134 251 193T306 307T356 409T394 486H447L210 -6H155L56 486H120Z" />
<glyph unicode="w" horiz-adv-x="595" d="M117 486Q121 462 126 424T139 337T154 236T173 132Q197 186 221 240T266 342T305 427T331 486H361Q368 445 375 390T393 270T418 132Q441 185 464 237T508 336T547 421T577 486H624L412 -6H375Q371 21 366 61T354 150T340
248T323 346Q299 296 276 246T233 149T195 63T165 -6H129L56 486H117Z" />
<glyph unicode="x" horiz-adv-x="348" d="M95 486L333 0H265L29 486H95ZM320 486H388L22 0H-44L320 486Z" />
<glyph unicode="y" horiz-adv-x="404" d="M-22 -171Q9 -169 34 -161T81 -133T123 -81T164 4L61 486H126Q134 445 143 396T161 293T181 188T204 88Q230 140 255 193T304 299T349 398T390 486H447L191 -76Q172 -118 138 -152T61 -206T-31 -230L-22 -171Z" />
<glyph unicode="z" horiz-adv-x="441" d="M114 486H426V447L116 52H381L371 0H33V41L341 434H106L114 486Z" />
<glyph unicode="{" horiz-adv-x="350" d="M210 -129Q135 -129 110 -87T95 30L119 197Q122 219 120 238T105 271T67 284L72 321Q102 321 118 337T141 376T151 422L172 575Q183 652 222 693T343 734H345L340 695Q302 695 282 688T252 661T237 605L213 433Q209 405
201 378T174 331T123 302Q153 294 166 274T180 228T178 172L152 -12Q148 -44 155 -61T180 -84T229 -90L224 -129H210Z" />
<glyph unicode="|" horiz-adv-x="237" d="M151 740H203L84 -105H32L151 740Z" />
<glyph unicode="}" horiz-adv-x="321" d="M144 734Q220 734 245 692T259 576L236 409Q231 376 240 349T287 321L282 285Q252 285 236 269T214 230T204 184L183 31Q172 -46 133 -87T12 -129H9L14 -90Q53 -90 73 -83T102 -55T117 1L141 173Q146 202 154 228T181
275T231 304Q201 313 188 332T174 378T177 434L202 618Q206 650 199 666T174 689T126 696L130 734H144Z" />
<glyph unicode="~" horiz-adv-x="559" d="M513 296Q497 276 474 256T424 222T371 209Q343 209 319 219T273 242T228 265T176 275Q158 275 141 265T110 241T86 210L45 249Q59 273 81 293T131 325T185 337Q216 337 243 328T293 305T338 283T380 273Q408 273 434
293T476 336L513 296Z" />
<glyph unicode="&#xa0;" horiz-adv-x="234" />
<glyph unicode="&#xa1;" horiz-adv-x="245" d="M100 -231H0L101 279H143L100 -231ZM83 439Q83 467 105 487T153 508Q176 508 192 493T208 455Q208 436 198 420T172 395T137 385Q114 385 99 401T83 439Z" />
<glyph unicode="&#xa2;" horiz-adv-x="494" d="M314 484Q348 484 380 474T446 437L406 387Q382 410 357 420T312 430Q260 430 223 398T167 314T147 206Q147 139 178 105T263 70Q316 70 377 97L398 57Q358 32 319 21T241 10Q174 10 129 60T83 202Q83 258 100 308T149
398T223 461T314 484ZM248 28L214 -113H153L212 28H248ZM309 471L342 607H406L347 471H309Z" />
<glyph unicode="&#xa3;" horiz-adv-x="581" d="M41 53H134L197 506Q205 565 233 606T307 670T411 692Q458 692 501 668T563 603L495 568Q485 597 462 617T403 638Q364 638 336 619T290 569T268 502L206 53H497L489 0H33L41 53ZM93 305L111 357H415L397 305H93Z" />
<glyph unicode="&#xa4;" horiz-adv-x="535" d="M295 455Q364 455 408 411L472 465L505 427L439 370Q449 349 454 327T460 279Q460 236 445 200T405 132L455 76L411 39L365 93Q337 71 305 59T239 47Q204 47 175 59T124 93L61 39L28 78L93 134Q73 172 73 223Q73
264 89 303T128 370L78 427L122 465L169 409Q197 430 229 442T295 455ZM288 407Q248 407 213 382T156 316T134 225Q134 170 164 133T244 96Q285 96 322 122T382 191T402 289Q398 338 367 372T288 407Z" />
<glyph unicode="&#xa5;" horiz-adv-x="604" d="M204 692L345 403L546 692H615L361 341L314 0H239L286 341L117 692H204ZM106 389H552L536 338H90L106 389ZM87 255H533L517 204H71L87 255Z" />
<glyph unicode="&#xa6;" horiz-adv-x="238" d="M151 740H203L155 394H102L151 740ZM80 231H133L84 -114H32L80 231Z" />
<glyph unicode="&#xa7;" horiz-adv-x="454" d="M380 772Q392 772 409 768T437 761T440 760L418 700Q416 701 406 706T382 711Q382 711 373 713T350 714T322 703T299 671T289 607Q289 578 291 530T298 425T307 311T316 205T322 125T325 89Q325 70 322 42T307 -16T271
-69T206 -100Q198 -152 173 -181T115 -223T53 -235Q24 -235 6 -227T-5 -223L15 -169Q14 -168 22 -170T39 -176T52 -179Q75 -179 97 -171T133 -139T147 -63Q147 -53 145 -17T138 71T129 182T120 297T114 397T111 463Q111 521 126 557T168 613T227 637Q232 681 254
711T310 756T380 772ZM228 574Q202 567 188 543T174 471Q174 456 177 414T185 315T195 193T204 69T209 -35Q221 -30 233 -20T253 12T261 74Q261 89 258 133T251 238T243 362T234 483T228 574Z" />
<glyph unicode="&#xa8;" horiz-adv-x="265" d="M164 667Q164 642 146 624T103 606Q84 606 72 619T59 652Q59 677 77 695T118 713Q139 713 151 700T164 667ZM323 667Q323 642 305 624T263 606Q243 606 231 619T218 652Q218 678 236 695T278 713Q298 713 310 700T323 667Z" />
<glyph unicode="&#xa9;" horiz-adv-x="636" d="M588 250Q588 195 567 147T509 61T423 2T319 -19Q264 -19 215 2T129 60T71 146T50 250Q50 306 71 354T129 440T215 498T319 519Q374 519 422 498T508 440T567 354T588 250ZM550 250Q550 313 519 365T435 449T319
481Q256 481 204 450T120 366T88 250Q88 187 119 135T203 51T319 19Q382 19 434 50T518 134T550 250ZM430 123Q402 106 381 99T326 92Q282 92 250 114T202 173T185 252Q185 320 224 365T334 410Q359 410 381 401T425 378L403 350Q383 367 367 372T325 377Q294 377
273 359T240 314T229 259Q229 232 239 202T271 151T325 129Q352 129 369 135T411 155L430 123Z" />
<glyph unicode="&#xaa;" horiz-adv-x="359" d="M251 724Q270 724 288 718T317 696L334 720H361Q347 647 338 599T324 521T316 477T314 458Q314 445 319 438T338 431Q345 431 350 432T361 435L365 406Q357 403 348 399T329 394Q306 394 292 406T275 442H271Q255
418 232 406T180 394Q147 394 126 410T94 452T84 510Q84 546 95 583T129 653T182 704T251 724ZM255 684Q217 684 190 657T148 591T133 513Q133 479 146 456T187 432Q219 432 240 456T275 520T296 602L306 660Q298 672 284 678T255 684ZM97 290L107 342H324L316
290H97Z" />
<glyph unicode="&#xab;" horiz-adv-x="454" d="M230 185L181 177L57 332L219 487L271 478L136 330L230 185ZM368 185L318 177L194 332L356 487L410 478L273 330L368 185Z" />
<glyph unicode="&#xac;" horiz-adv-x="638" d="M526 285H83L91 333H581L546 94H498L526 285Z" />
<glyph unicode="&#xad;" horiz-adv-x="330" d="M29 228L39 287H291L281 228H29Z" />
<glyph unicode="&#xae;" horiz-adv-x="472" d="M479 600Q479 546 453 503T384 434T287 408Q234 408 190 433T121 502T95 599Q95 653 120 696T190 764T287 790Q340 790 383 765T453 696T479 600ZM447 599Q447 644 425 680T367 737T287 759Q242 759 206 738T149
680T127 599Q127 555 148 519T206 462T287 440Q331 440 367 461T425 519T447 599ZM208 709H293Q324 709 346 697T368 648Q368 627 355 613T321 592L393 489H339L275 585H252V489H208V709ZM252 677V617H279Q299 617 311 624T324 650Q324 664 312 670T286 677H252Z"
/>
<glyph unicode="&#xaf;" horiz-adv-x="310" d="M64 689H372L365 630H57L64 689Z" />
<glyph unicode="&#xb0;" horiz-adv-x="394" d="M403 615Q403 567 378 527T313 464T226 440Q168 440 129 477T90 571Q90 618 115 658T181 722T267 746Q326 746 364 709T403 615ZM341 607Q341 642 319 665T261 688Q234 688 210 673T169 634T153 579Q153 543 175
521T232 498Q259 498 284 512T325 552T341 607Z" />
<glyph unicode="&#xb1;" horiz-adv-x="632" d="M322 59H262L288 243H69L78 304H297L321 486H381L357 303H577L568 243H348L322 59ZM42 58H542L535 -1H35L42 58Z" />
<glyph unicode="&#xb2;" horiz-adv-x="455" d="M104 468Q117 478 143 498T203 547T269 607T331 675T377 744T395 808Q395 838 376 857T320 877Q295 877 272 870T232 852T204 835T194 827L173 864Q173 864 184 873T218 894T270 915T339 924Q385 924 410 909T445
870T456 821Q456 778 436 736T383 655T314 583T244 525T190 486H420L399 432H104V468Z" />
<glyph unicode="&#xb3;" horiz-adv-x="455" d="M113 463Q238 469 306 512T375 616Q375 645 360 659T321 678T272 683Q259 683 248 682T236 681L237 722Q259 726 284 734T333 756T371 788T386 833Q386 855 368 866T315 877Q287 877 251 862T191 827L170 865Q205
891 253 907T342 924Q367 924 390 917T428 895T444 851Q444 815 426 790T381 748T334 723Q375 719 405 693T435 624Q435 600 425 574T393 522T334 475T243 439T115 422L113 463Z" />
<glyph unicode="&#xb4;" horiz-adv-x="276" d="M190 732H299L144 587H80L190 732Z" />
<glyph unicode="&#xb5;" horiz-adv-x="584" d="M213 486Q199 381 190 317T177 219T170 169T168 149T168 137Q168 102 182 76T240 49Q267 49 294 60T344 87T381 113T395 125L435 427L431 486H505Q504 482 500 450T489 369T475 267T461 165T450 86T446 50Q446 46
449 47T453 48Q465 48 478 51T500 58T505 60L515 21Q522 23 515 18T491 6T457 -8T422 -14Q397 -14 388 5T380 59Q367 48 340 31T278 0T211 -14Q181 -14 150 -1L124 -185H60L143 427L138 486H213Z" />
<glyph unicode="&#xb6;" horiz-adv-x="489" d="M92 -111Q98 -113 103 -113T114 -114Q140 -114 156 -96T176 -52L236 374Q193 374 158 394T102 449T81 524Q81 586 115 629T206 695T330 718H511L504 672H448L355 10Q351 -21 331 -45T282 -85T222 -100Q218 -100 214
-100T204 -99Q189 -127 166 -143T113 -160Q96 -160 76 -154L92 -111ZM328 672L226 -52Q255 -52 279 -35T306 5L400 672H328Z" />
<glyph unicode="&#xb7;" horiz-adv-x="281" d="M211 263Q211 235 190 214T141 193Q117 193 102 208T87 248Q87 275 107 295T155 316Q179 316 195 301T211 263Z" />
<glyph unicode="&#xb8;" horiz-adv-x="188" d="M101 -120Q101 -147 84 -168T37 -202T-25 -217L-29 -186Q-12 -184 4 -176T31 -154T42 -120Q42 -97 28 -84T1 -65L37 5H65L38 -48Q45 -49 60 -55T88 -77T101 -120Z" />
<glyph unicode="&#xb9;" horiz-adv-x="455" d="M135 480H248L297 848L179 813L172 850L337 915H366L307 480H398L391 432H128L135 480Z" />
<glyph unicode="&#xba;" horiz-adv-x="355" d="M358 587Q358 554 348 520T317 457T268 410T200 392Q159 392 134 412T96 463T84 529Q84 562 94 596T126 660T176 708T243 726Q284 726 309 706T346 654T358 587ZM310 581Q310 604 304 627T282 665T238 681Q213 681
194 668T161 634T140 589T133 542Q133 520 139 495T162 453T204 436Q230 436 250 449T283 485T303 532T310 581ZM77 290L85 342H305L295 290H77Z" />
<glyph unicode="&#xbb;" horiz-adv-x="454" d="M61 188L197 335L99 482L150 487L277 334L115 177L61 188ZM200 188L335 335L238 482L288 487L414 334L252 177L200 188Z" />
<glyph unicode="&#xbc;" horiz-adv-x="1188" d="M825 729H876L395 -11H346L825 729ZM108 290H221L270 658L152 623L145 660L310 725H339L280 290H371L364 242H101L108 290ZM986 115H755L761 148L1044 481H1107L1057 163H1134L1112 115H1048L1031 0H969L986 115ZM1033
403L833 163H995L1033 403Z" />
<glyph unicode="&#xbd;" horiz-adv-x="1188" d="M825 729H876L395 -11H346L825 729ZM108 290H221L270 658L152 623L145 660L310 725H339L280 290H371L364 242H101L108 290ZM776 36Q789 46 815 66T875 115T941 175T1003 243T1049 312T1067 376Q1067 406 1048 426T992
446Q967 446 944 439T904 421T876 403T866 395L845 432Q845 432 856 441T890 462T942 483T1011 492Q1057 492 1082 477T1117 438T1128 390Q1128 347 1108 305T1055 224T986 152T916 93T862 54H1093L1071 0H776V36Z" />
<glyph unicode="&#xbe;" horiz-adv-x="1188" d="M825 729H876L395 -11H346L825 729ZM86 273Q211 279 279 322T348 426Q348 455 333 469T294 488T245 493Q232 493 221 492T209 491L210 532Q232 536 257 544T306 566T344 598T359 643Q359 665 341 676T288 687Q260
687 224 672T164 637L143 675Q178 701 226 717T315 734Q340 734 363 727T401 705T417 661Q417 625 399 600T354 558T307 533Q348 529 378 503T408 434Q408 410 398 384T366 332T307 285T216 249T88 232L86 273ZM986 115H755L761 148L1044 481H1107L1057 163H1134L1112
115H1048L1031 0H969L986 115ZM1033 403L833 163H995L1033 403Z" />
<glyph unicode="&#xbf;" horiz-adv-x="430" d="M181 -234Q145 -234 112 -219T58 -175T37 -101Q37 -53 53 -20T95 34T148 69Q195 93 228 115T261 175Q261 188 255 198T235 216T198 223L216 277Q246 280 269 267T306 232T320 185Q320 141 299 112T248 64T186 28Q148
9 127 -15T105 -91Q105 -140 130 -160T189 -181Q239 -181 280 -145L287 -198Q265 -217 238 -225T181 -234ZM277 379Q255 379 240 394T224 430Q224 457 246 478T294 499Q317 499 331 484T346 447Q346 419 325 399T277 379Z" />
<glyph unicode="&#xc0;" horiz-adv-x="616" d="M431 720L569 0H495L444 270H203L78 0H20L355 720H431ZM373 625L229 320H433L373 625ZM365 895L437 771H373L256 895H365Z" />
<glyph unicode="&#xc1;" horiz-adv-x="616" d="M431 720L569 0H495L444 270H203L78 0H20L355 720H431ZM373 625L229 320H433L373 625ZM467 895H576L425 771H361L467 895Z" />
<glyph unicode="&#xc2;" horiz-adv-x="616" d="M431 720L569 0H495L444 270H203L78 0H20L355 720H431ZM373 625L229 320H433L373 625ZM406 835L313 765H256L380 904H455L546 764H487L406 835Z" />
<glyph unicode="&#xc3;" horiz-adv-x="616" d="M431 720L569 0H495L444 270H203L78 0H20L355 720H431ZM373 625L229 320H433L373 625ZM562 870Q556 853 544 832T514 795T475 780Q446 780 423 790T375 809T322 819Q309 819 303 810T288 793H247Q255 814 269 835T303
870T347 884Q373 884 397 875T444 856T487 846Q498 846 507 853T524 870H562Z" />
<glyph unicode="&#xc4;" horiz-adv-x="616" d="M431 720L569 0H495L444 270H203L78 0H20L355 720H431ZM373 625L229 320H433L373 625ZM379 838Q379 813 361 795T318 777Q299 777 287 790T274 823Q274 848 292 866T333 884Q354 884 366 871T379 838ZM538 838Q538
813 520 795T478 777Q458 777 446 790T433 823Q433 849 451 866T493 884Q513 884 525 871T538 838Z" />
<glyph unicode="&#xc5;" horiz-adv-x="616" d="M431 720L569 0H495L444 270H203L78 0H20L355 720H431ZM373 625L229 320H433L373 625ZM427 981Q463 981 487 957T511 897Q511 868 496 844T457 805T404 790Q370 790 345 814T320 873Q320 902 335 926T374 966T427
981ZM422 937Q398 937 380 921T362 880Q362 861 376 847T411 833Q433 833 451 850T469 891Q469 909 455 923T422 937Z" />
<glyph unicode="&#xc6;" horiz-adv-x="798" d="M421 267H225L52 0H-11L412 655L407 720H852L844 667H537L504 395H758L750 344H494L458 53H767L760 0H387L421 267ZM262 323H430L471 639L262 323Z" />
<glyph unicode="&#xc7;" horiz-adv-x="584" d="M324 -9Q257 -9 208 16T125 85T76 185T60 303Q60 378 84 453T155 590T271 690T432 728Q466 728 499 721T564 696T619 647L576 607Q542 643 503 658T421 673Q353 673 300 640T209 552T152 432T132 302Q132 236 154
180T221 90T335 56Q384 56 431 67T521 103L540 57Q513 36 476 21T400 -1T324 -9ZM347 -120Q347 -147 330 -168T283 -202T221 -217L217 -186Q234 -184 250 -176T277 -154T288 -120Q288 -97 274 -84T247 -65L283 5H311L284 -48Q291 -49 306 -55T334 -77T347 -120Z"
/>
<glyph unicode="&#xc8;" horiz-adv-x="496" d="M154 720H550L542 667H218L184 394H436L427 342H176L137 53H461L454 0H63L150 653L154 720ZM326 895L398 771H334L217 895H326Z" />
<glyph unicode="&#xc9;" horiz-adv-x="496" d="M154 720H550L542 667H218L184 394H436L427 342H176L137 53H461L454 0H63L150 653L154 720ZM428 895H537L386 771H322L428 895Z" />
<glyph unicode="&#xca;" horiz-adv-x="496" d="M154 720H550L542 667H218L184 394H436L427 342H176L137 53H461L454 0H63L150 653L154 720ZM367 835L274 765H217L341 904H416L507 764H448L367 835Z" />
<glyph unicode="&#xcb;" horiz-adv-x="496" d="M154 720H550L542 667H218L184 394H436L427 342H176L137 53H461L454 0H63L150 653L154 720ZM340 838Q340 813 322 795T279 777Q260 777 248 790T235 823Q235 848 253 866T294 884Q315 884 327 871T340 838ZM499 838Q499
813 481 795T439 777Q419 777 407 790T394 823Q394 849 412 866T454 884Q474 884 486 871T499 838Z" />
<glyph unicode="&#xcc;" horiz-adv-x="252" d="M158 720H233L134 0H66L155 653L158 720ZM420 895L492 771H428L311 895H420Z" />
<glyph unicode="&#xcd;" horiz-adv-x="252" d="M158 720H233L134 0H66L155 653L158 720ZM266 895H375L224 771H160L266 895Z" />
<glyph unicode="&#xce;" horiz-adv-x="252" d="M158 720H233L134 0H66L155 653L158 720ZM461 835L368 765H311L435 904H510L601 764H542L461 835Z" />
<glyph unicode="&#xcf;" horiz-adv-x="252" d="M158 720H233L134 0H66L155 653L158 720ZM434 838Q434 813 416 795T373 777Q354 777 342 790T329 823Q329 848 347 866T388 884Q409 884 421 871T434 838ZM593 838Q593 813 575 795T533 777Q513 777 501 790T488
823Q488 849 506 866T548 884Q568 884 580 871T593 838Z" />
<glyph unicode="&#xd0;" horiz-adv-x="687" d="M635 433Q635 355 616 278T554 138T446 38T284 0H63L151 653L155 720H389Q457 720 504 697T580 633T622 541T635 433ZM566 434Q566 477 558 518T529 593T474 647T387 667H221L139 53H289Q348 53 393 77T471 142T525
233T556 335T566 434ZM64 384H379L370 329H55L64 384Z" />
<glyph unicode="&#xd1;" horiz-adv-x="670" d="M245 720L481 230Q491 210 499 191T516 144Q518 171 521 187T527 220L597 720H650L552 -5H522L237 578Q230 594 223 610T207 653Q204 625 201 606T195 570L119 0H63L152 653L155 720H245ZM571 870Q565 853 553 832T523
795T484 780Q455 780 432 790T384 809T331 819Q318 819 312 810T297 793H256Q264 814 278 835T312 870T356 884Q382 884 406 875T453 856T496 846Q507 846 516 853T533 870H571Z" />
<glyph unicode="&#xd2;" horiz-adv-x="709" d="M306 -9Q239 -9 192 15T116 80T74 175T60 286Q60 363 81 441T145 584T254 689T410 729Q500 729 554 689T632 582T656 437Q656 356 635 277T570 133T461 30T306 -9ZM318 46Q376 46 420 69T496 133T548 224T577 328T587
432Q587 495 570 550T513 639T402 674Q344 674 300 650T224 586T172 496T141 391T131 287Q131 226 148 171T207 81T318 46ZM387 895L459 771H395L278 895H387Z" />
<glyph unicode="&#xd3;" horiz-adv-x="709" d="M306 -9Q239 -9 192 15T116 80T74 175T60 286Q60 363 81 441T145 584T254 689T410 729Q500 729 554 689T632 582T656 437Q656 356 635 277T570 133T461 30T306 -9ZM318 46Q376 46 420 69T496 133T548 224T577 328T587
432Q587 495 570 550T513 639T402 674Q344 674 300 650T224 586T172 496T141 391T131 287Q131 226 148 171T207 81T318 46ZM489 895H598L447 771H383L489 895Z" />
<glyph unicode="&#xd4;" horiz-adv-x="709" d="M306 -9Q239 -9 192 15T116 80T74 175T60 286Q60 363 81 441T145 584T254 689T410 729Q500 729 554 689T632 582T656 437Q656 356 635 277T570 133T461 30T306 -9ZM318 46Q376 46 420 69T496 133T548 224T577 328T587
432Q587 495 570 550T513 639T402 674Q344 674 300 650T224 586T172 496T141 391T131 287Q131 226 148 171T207 81T318 46ZM428 835L335 765H278L402 904H477L568 764H509L428 835Z" />
<glyph unicode="&#xd5;" horiz-adv-x="709" d="M306 -9Q239 -9 192 15T116 80T74 175T60 286Q60 363 81 441T145 584T254 689T410 729Q500 729 554 689T632 582T656 437Q656 356 635 277T570 133T461 30T306 -9ZM318 46Q376 46 420 69T496 133T548 224T577 328T587
432Q587 495 570 550T513 639T402 674Q344 674 300 650T224 586T172 496T141 391T131 287Q131 226 148 171T207 81T318 46ZM584 870Q578 853 566 832T536 795T497 780Q468 780 445 790T397 809T344 819Q331 819 325 810T310 793H269Q277 814 291 835T325 870T369
884Q395 884 419 875T466 856T509 846Q520 846 529 853T546 870H584Z" />
<glyph unicode="&#xd6;" horiz-adv-x="709" d="M306 -9Q239 -9 192 15T116 80T74 175T60 286Q60 363 81 441T145 584T254 689T410 729Q500 729 554 689T632 582T656 437Q656 356 635 277T570 133T461 30T306 -9ZM318 46Q376 46 420 69T496 133T548 224T577 328T587
432Q587 495 570 550T513 639T402 674Q344 674 300 650T224 586T172 496T141 391T131 287Q131 226 148 171T207 81T318 46ZM401 838Q401 813 383 795T340 777Q321 777 309 790T296 823Q296 848 314 866T355 884Q376 884 388 871T401 838ZM560 838Q560 813 542 795T500
777Q480 777 468 790T455 823Q455 849 473 866T515 884Q535 884 547 871T560 838Z" />
<glyph unicode="&#xd7;" horiz-adv-x="534" d="M263 210L84 54L55 89L234 245L98 401L139 435L271 279L450 435L479 401L300 245L436 89L395 54L263 210Z" />
<glyph unicode="&#xd8;" horiz-adv-x="709" d="M306 -9Q239 -9 192 15T116 80T74 175T60 286Q60 363 81 441T145 584T254 689T410 729Q500 729 554 689T632 582T656 437Q656 356 635 277T570 133T461 30T306 -9ZM318 46Q376 46 420 69T496 133T548 224T577 328T587
432Q587 495 570 550T513 639T402 674Q344 674 300 650T224 586T172 496T141 391T131 287Q131 226 148 171T207 81T318 46ZM318 -56L281 -22L904 765L945 734L318 -56Z" />
<glyph unicode="&#xd9;" horiz-adv-x="627" d="M191 720L126 243Q125 228 124 216T123 192Q123 153 135 120T179 66T269 46Q338 46 384 72T456 147T492 265L553 720H610L544 246Q535 180 504 122T415 27T265 -9Q199 -9 158 7T93 52T61 113T52 179Q52 190 53 202T56
226L113 654L117 720H191ZM348 895L420 771H356L239 895H348Z" />
<glyph unicode="&#xda;" horiz-adv-x="627" d="M191 720L126 243Q125 228 124 216T123 192Q123 153 135 120T179 66T269 46Q338 46 384 72T456 147T492 265L553 720H610L544 246Q535 180 504 122T415 27T265 -9Q199 -9 158 7T93 52T61 113T52 179Q52 190 53 202T56
226L113 654L117 720H191ZM450 895H559L408 771H344L450 895Z" />
<glyph unicode="&#xdb;" horiz-adv-x="627" d="M191 720L126 243Q125 228 124 216T123 192Q123 153 135 120T179 66T269 46Q338 46 384 72T456 147T492 265L553 720H610L544 246Q535 180 504 122T415 27T265 -9Q199 -9 158 7T93 52T61 113T52 179Q52 190 53 202T56
226L113 654L117 720H191ZM389 835L296 765H239L363 904H438L529 764H470L389 835Z" />
<glyph unicode="&#xdc;" horiz-adv-x="627" d="M191 720L126 243Q125 228 124 216T123 192Q123 153 135 120T179 66T269 46Q338 46 384 72T456 147T492 265L553 720H610L544 246Q535 180 504 122T415 27T265 -9Q199 -9 158 7T93 52T61 113T52 179Q52 190 53 202T56
226L113 654L117 720H191ZM362 838Q362 813 344 795T301 777Q282 777 270 790T257 823Q257 848 275 866T316 884Q337 884 349 871T362 838ZM521 838Q521 813 503 795T461 777Q441 777 429 790T416 823Q416 849 434 866T476 884Q496 884 508 871T521 838Z" />
<glyph unicode="&#xdd;" horiz-adv-x="453" d="M126 720L262 429L457 720H517L277 374L227 0H156L207 374L46 720H126ZM366 895H475L324 771H260L366 895Z" />
<glyph unicode="&#xde;" horiz-adv-x="520" d="M224 720L209 606H317Q373 606 419 589T493 532T521 425Q521 371 505 325T456 243T376 188T266 168H148L125 0H55L144 653L147 720H224ZM156 219H266Q326 219 367 246T430 319T452 416Q452 484 414 518T308 553H200L156
219Z" />
<glyph unicode="&#xdf;" horiz-adv-x="544" d="M-130 -205L-93 -162Q-72 -176 -64 -179T-48 -182T-26 -180Q4 -180 30 -151T65 -56L132 438H60L66 486Q85 486 100 486T126 494T144 526Q161 581 182 626T242 699T348 727Q386 727 414 711T457 669T473 613Q473 572
457 542T418 489T371 446T331 406T315 361Q315 327 330 306T369 267T416 232T454 189T470 122Q470 79 451 49T398 2T324 -14Q291 -14 257 -5T184 26L222 76Q248 53 274 46T323 39Q360 39 385 59T411 121Q411 152 396 172T357 208T311 242T273 286T257 353Q257 385
273 410T312 456T358 500T397 549T413 611Q413 643 396 659T344 676Q309 676 284 661T241 620T214 564T200 501L121 -71Q109 -158 70 -194T-28 -230Q-47 -230 -62 -230T-92 -224T-130 -205Z" />
<glyph unicode="&#xe0;" horiz-adv-x="507" d="M416 492H450Q435 394 425 327T408 216T398 147T393 108T391 86Q391 65 399 55T429 44Q439 44 447 45T464 50L472 7Q459 0 444 -6T414 -12Q374 -12 354 15T336 82H332Q312 39 272 13T188 -14Q136 -14 104 13T57 87T42
189Q42 245 57 300T103 401T181 473T292 500Q326 500 353 488T408 447V402Q379 427 352 437T292 448Q238 448 202 423T146 358T116 273T107 189Q107 128 129 85T200 41Q233 41 260 62T307 118T341 199T360 293L377 425L416 492ZM258 732L326 587H261L148 732H258Z"
/>
<glyph unicode="&#xe1;" horiz-adv-x="507" d="M416 492H450Q435 394 425 327T408 216T398 147T393 108T391 86Q391 65 399 55T429 44Q439 44 447 45T464 50L472 7Q459 0 444 -6T414 -12Q374 -12 354 15T336 82H332Q312 39 272 13T188 -14Q136 -14 104 13T57 87T42
189Q42 245 57 300T103 401T181 473T292 500Q326 500 353 488T408 447V402Q379 427 352 437T292 448Q238 448 202 423T146 358T116 273T107 189Q107 128 129 85T200 41Q233 41 260 62T307 118T341 199T360 293L377 425L416 492ZM361 732H470L315 587H251L361 732Z"
/>
<glyph unicode="&#xe2;" horiz-adv-x="507" d="M416 492H450Q435 394 425 327T408 216T398 147T393 108T391 86Q391 65 399 55T429 44Q439 44 447 45T464 50L472 7Q459 0 444 -6T414 -12Q374 -12 354 15T336 82H332Q312 39 272 13T188 -14Q136 -14 104 13T57 87T42
189Q42 245 57 300T103 401T181 473T292 500Q326 500 353 488T408 447V402Q379 427 352 437T292 448Q238 448 202 423T146 358T116 273T107 189Q107 128 129 85T200 41Q233 41 260 62T307 118T341 199T360 293L377 425L416 492ZM301 671L203 581H146L274 739H349L436
579H377L301 671Z" />
<glyph unicode="&#xe3;" horiz-adv-x="507" d="M416 492H450Q435 394 425 327T408 216T398 147T393 108T391 86Q391 65 399 55T429 44Q439 44 447 45T464 50L472 7Q459 0 444 -6T414 -12Q374 -12 354 15T336 82H332Q312 39 272 13T188 -14Q136 -14 104 13T57 87T42
189Q42 245 57 300T103 401T181 473T292 500Q326 500 353 488T408 447V402Q379 427 352 437T292 448Q238 448 202 423T146 358T116 273T107 189Q107 128 129 85T200 41Q233 41 260 62T307 118T341 199T360 293L377 425L416 492ZM455 698Q449 681 437 660T408 624T368
609Q339 609 316 618T268 637T215 647Q202 647 196 639T181 622H140Q148 643 162 664T196 699T240 713Q266 713 290 704T337 684T380 674Q391 674 400 681T417 698H455Z" />
<glyph unicode="&#xe4;" horiz-adv-x="507" d="M416 492H450Q435 394 425 327T408 216T398 147T393 108T391 86Q391 65 399 55T429 44Q439 44 447 45T464 50L472 7Q459 0 444 -6T414 -12Q374 -12 354 15T336 82H332Q312 39 272 13T188 -14Q136 -14 104 13T57 87T42
189Q42 245 57 300T103 401T181 473T292 500Q326 500 353 488T408 447V402Q379 427 352 437T292 448Q238 448 202 423T146 358T116 273T107 189Q107 128 129 85T200 41Q233 41 260 62T307 118T341 199T360 293L377 425L416 492ZM272 667Q272 642 254 624T211 606Q192
606 180 619T167 652Q167 677 185 695T226 713Q247 713 259 700T272 667ZM431 667Q431 642 413 624T371 606Q351 606 339 619T326 652Q326 678 344 695T386 713Q406 713 418 700T431 667Z" />
<glyph unicode="&#xe5;" horiz-adv-x="507" d="M416 492H450Q435 394 425 327T408 216T398 147T393 108T391 86Q391 65 399 55T429 44Q439 44 447 45T464 50L472 7Q459 0 444 -6T414 -12Q374 -12 354 15T336 82H332Q312 39 272 13T188 -14Q136 -14 104 13T57 87T42
189Q42 245 57 300T103 401T181 473T292 500Q326 500 353 488T408 447V402Q379 427 352 437T292 448Q238 448 202 423T146 358T116 273T107 189Q107 128 129 85T200 41Q233 41 260 62T307 118T341 199T360 293L377 425L416 492ZM311 752Q347 752 371 728T395 668Q395
640 380 616T341 576T289 561Q254 561 229 585T204 644Q204 673 219 697T258 737T311 752ZM306 708Q282 708 265 692T247 651Q247 632 262 618T296 604Q318 604 336 621T354 661Q354 680 340 694T306 708Z" />
<glyph unicode="&#xe6;" horiz-adv-x="756" d="M393 196Q373 137 347 90T283 14T188 -14Q136 -14 104 13T57 87T42 189Q42 245 57 300T103 401T181 473T292 500Q315 500 340 496T391 476T442 426L408 402Q379 427 352 437T292 448Q238 448 202 423T146 358T116
273T107 189Q107 128 129 85T200 41Q243 41 274 73T327 158T358 269L393 196ZM542 47Q577 47 610 54T678 83L700 37Q673 18 648 7T603 -8T566 -13T540 -14Q474 -14 433 16T372 98T352 209Q352 260 367 311T412 404T489 473T599 499Q629 499 657 490T705 460T724
404Q724 345 695 306T617 245T514 214T406 206V253Q428 247 460 249T526 262T591 289T641 333T660 392Q660 421 638 435T589 449Q547 449 515 428T461 371T428 293T417 209Q417 164 429 128T468 69T542 47Z" />
<glyph unicode="&#xe7;" horiz-adv-x="419" d="M382 399Q355 424 331 433T286 443Q240 443 207 423T151 368T118 293T107 211Q107 124 138 84T227 43Q254 43 286 51T354 76L377 37Q337 10 294 -2T214 -14Q171 -14 132 7T67 77T42 202Q42 248 55 299T97 396T173
470T290 499Q323 499 357 488T422 447L382 399ZM255 -120Q255 -147 238 -168T191 -202T129 -217L125 -186Q142 -184 158 -176T185 -154T196 -120Q196 -97 182 -84T155 -65L191 5H219L192 -48Q199 -49 214 -55T242 -77T255 -120Z" />
<glyph unicode="&#xe8;" horiz-adv-x="448" d="M291 499Q321 499 349 490T396 460T415 404Q415 345 386 306T308 245T205 214T97 206V253Q130 246 173 252T257 276T325 324T352 392Q352 421 330 435T280 449Q238 449 206 428T153 371T120 293T109 209Q109 125
146 86T244 47Q272 47 304 54T370 76L392 37Q364 18 340 7T294 -8T258 -13T232 -14Q166 -14 125 16T64 98T44 209Q44 260 59 311T104 404T181 473T291 499ZM271 732L339 587H274L161 732H271Z" />
<glyph unicode="&#xe9;" horiz-adv-x="448" d="M291 499Q321 499 349 490T396 460T415 404Q415 345 386 306T308 245T205 214T97 206V253Q130 246 173 252T257 276T325 324T352 392Q352 421 330 435T280 449Q238 449 206 428T153 371T120 293T109 209Q109 125
146 86T244 47Q272 47 304 54T370 76L392 37Q364 18 340 7T294 -8T258 -13T232 -14Q166 -14 125 16T64 98T44 209Q44 260 59 311T104 404T181 473T291 499ZM374 732H483L328 587H264L374 732Z" />
<glyph unicode="&#xea;" horiz-adv-x="448" d="M291 499Q321 499 349 490T396 460T415 404Q415 345 386 306T308 245T205 214T97 206V253Q130 246 173 252T257 276T325 324T352 392Q352 421 330 435T280 449Q238 449 206 428T153 371T120 293T109 209Q109 125
146 86T244 47Q272 47 304 54T370 76L392 37Q364 18 340 7T294 -8T258 -13T232 -14Q166 -14 125 16T64 98T44 209Q44 260 59 311T104 404T181 473T291 499ZM314 671L216 581H159L287 739H362L449 579H390L314 671Z" />
<glyph unicode="&#xeb;" horiz-adv-x="448" d="M291 499Q321 499 349 490T396 460T415 404Q415 345 386 306T308 245T205 214T97 206V253Q130 246 173 252T257 276T325 324T352 392Q352 421 330 435T280 449Q238 449 206 428T153 371T120 293T109 209Q109 125
146 86T244 47Q272 47 304 54T370 76L392 37Q364 18 340 7T294 -8T258 -13T232 -14Q166 -14 125 16T64 98T44 209Q44 260 59 311T104 404T181 473T291 499ZM285 667Q285 642 267 624T224 606Q205 606 193 619T180 652Q180 677 198 695T239 713Q260 713 272 700T285
667ZM444 667Q444 642 426 624T384 606Q364 606 352 619T339 652Q339 678 357 695T399 713Q419 713 431 700T444 667Z" />
<glyph unicode="&#xec;" horiz-adv-x="226" d="M116 0H47L104 428L106 486H175L117 60L116 0ZM378 732L446 587H381L268 732H378Z" />
<glyph unicode="&#xed;" horiz-adv-x="226" d="M116 0H47L104 428L106 486H175L117 60L116 0ZM225 732H334L179 587H115L225 732Z" />
<glyph unicode="&#xee;" horiz-adv-x="226" d="M116 0H47L104 428L106 486H175L117 60L116 0ZM421 671L323 581H266L394 739H469L556 579H497L421 671Z" />
<glyph unicode="&#xef;" horiz-adv-x="226" d="M116 0H47L104 428L106 486H175L117 60L116 0ZM392 667Q392 642 374 624T331 606Q312 606 300 619T287 652Q287 677 305 695T346 713Q367 713 379 700T392 667ZM551 667Q551 642 533 624T491 606Q471 606 459 619T446
652Q446 678 464 695T506 713Q526 713 538 700T551 667Z" />
<glyph unicode="&#xf0;" d="M290 502Q314 502 333 497T371 484Q354 530 333 572T289 651L174 589L154 620L270 682Q257 700 244 715T220 743L259 766Q269 756 283 740T310 704L424 765L440 732L333 674Q364 627 394 567T444 438T465 299Q465 242 448 188T400 89T324
18T223 -9Q165 -9 126 19T68 93T48 195Q48 252 65 306T113 405T189 476T290 502ZM284 454Q244 454 215 436T166 387T134 323T116 256T110 201Q110 163 121 125T158 63T228 38Q256 38 281 49T329 82T367 134T392 203T401 286Q401 326 391 364T355 428T284 454Z"
/>
<glyph unicode="&#xf1;" horiz-adv-x="495" d="M153 496Q154 493 157 470T162 421Q181 438 204 456T257 486T322 499Q340 499 361 495T402 478T434 438T447 366Q447 349 444 325L409 60L408 0H339L379 292Q381 307 383 323T385 355Q385 376 380 395T359 427T312
440Q284 440 259 430T212 406T178 380T159 365L110 0H48L95 347Q97 361 98 373T99 396Q99 435 94 457T84 486T82 488L153 496ZM471 698Q465 681 453 660T424 624T384 609Q355 609 332 618T284 637T231 647Q218 647 212 639T197 622H156Q164 643 178 664T212 699T256
713Q282 713 306 704T353 684T396 674Q407 674 416 681T433 698H471Z" />
<glyph unicode="&#xf2;" horiz-adv-x="501" d="M218 -14Q158 -14 120 17T63 98T44 206Q44 258 59 309T104 404T178 473T283 499Q343 499 381 468T438 388T457 280Q457 228 442 176T397 81T322 12T218 -14ZM222 38Q265 38 297 58T350 113T381 189T392 272Q392 318
380 357T343 422T278 447Q235 447 204 427T151 372T120 296T109 214Q109 169 121 129T158 63T222 38ZM266 732L334 587H269L156 732H266Z" />
<glyph unicode="&#xf3;" horiz-adv-x="501" d="M218 -14Q158 -14 120 17T63 98T44 206Q44 258 59 309T104 404T178 473T283 499Q343 499 381 468T438 388T457 280Q457 228 442 176T397 81T322 12T218 -14ZM222 38Q265 38 297 58T350 113T381 189T392 272Q392 318
380 357T343 422T278 447Q235 447 204 427T151 372T120 296T109 214Q109 169 121 129T158 63T222 38ZM369 732H478L323 587H259L369 732Z" />
<glyph unicode="&#xf4;" horiz-adv-x="501" d="M218 -14Q158 -14 120 17T63 98T44 206Q44 258 59 309T104 404T178 473T283 499Q343 499 381 468T438 388T457 280Q457 228 442 176T397 81T322 12T218 -14ZM222 38Q265 38 297 58T350 113T381 189T392 272Q392 318
380 357T343 422T278 447Q235 447 204 427T151 372T120 296T109 214Q109 169 121 129T158 63T222 38ZM309 671L211 581H154L282 739H357L444 579H385L309 671Z" />
<glyph unicode="&#xf5;" horiz-adv-x="501" d="M218 -14Q158 -14 120 17T63 98T44 206Q44 258 59 309T104 404T178 473T283 499Q343 499 381 468T438 388T457 280Q457 228 442 176T397 81T322 12T218 -14ZM222 38Q265 38 297 58T350 113T381 189T392 272Q392 318
380 357T343 422T278 447Q235 447 204 427T151 372T120 296T109 214Q109 169 121 129T158 63T222 38ZM463 698Q457 681 445 660T416 624T376 609Q347 609 324 618T276 637T223 647Q210 647 204 639T189 622H148Q156 643 170 664T204 699T248 713Q274 713 298 704T345
684T388 674Q399 674 408 681T425 698H463Z" />
<glyph unicode="&#xf6;" horiz-adv-x="501" d="M218 -14Q158 -14 120 17T63 98T44 206Q44 258 59 309T104 404T178 473T283 499Q343 499 381 468T438 388T457 280Q457 228 442 176T397 81T322 12T218 -14ZM222 38Q265 38 297 58T350 113T381 189T392 272Q392 318
380 357T343 422T278 447Q235 447 204 427T151 372T120 296T109 214Q109 169 121 129T158 63T222 38ZM280 667Q280 642 262 624T219 606Q200 606 188 619T175 652Q175 677 193 695T234 713Q255 713 267 700T280 667ZM439 667Q439 642 421 624T379 606Q359 606 347
619T334 652Q334 678 352 695T394 713Q414 713 426 700T439 667Z" />
<glyph unicode="&#xf7;" horiz-adv-x="630" d="M390 392Q390 367 371 350T328 333Q309 333 296 345T283 376Q283 400 301 418T343 436Q363 436 376 424T390 392ZM72 268H572L564 213H65L72 268ZM350 106Q350 90 342 77T320 56T290 48Q270 48 257 60T243 90Q243
115 261 132T303 149Q323 149 336 137T350 106Z" />
<glyph unicode="&#xf8;" horiz-adv-x="501" d="M218 -14Q158 -14 120 17T63 98T44 206Q44 258 59 309T104 404T178 473T283 499Q343 499 381 468T438 388T457 280Q457 228 442 176T397 81T322 12T218 -14ZM222 38Q265 38 297 58T350 113T381 189T392 272Q392 318
380 357T343 422T278 447Q235 447 204 427T151 372T120 296T109 214Q109 169 121 129T158 63T222 38ZM307 -49L273 -22L707 551L744 524L307 -49Z" />
<glyph unicode="&#xf9;" horiz-adv-x="516" d="M155 486L112 172Q111 159 110 147T109 124Q109 72 129 51T185 30Q196 30 213 31T250 43T291 77T328 147T355 264L379 421L382 486H449L399 116Q398 108 398 101T397 88Q397 58 407 50T427 42Q444 42 456 47T464
51L472 5Q480 10 471 5T446 -7T414 -14Q399 -14 380 -6T348 23T337 77H333Q332 74 325 60T302 29T255 -1T176 -14Q106 -14 77 25T47 123Q47 144 50 166L87 422L89 486H155ZM246 732L314 587H249L136 732H246Z" />
<glyph unicode="&#xfa;" horiz-adv-x="516" d="M155 486L112 172Q111 159 110 147T109 124Q109 72 129 51T185 30Q196 30 213 31T250 43T291 77T328 147T355 264L379 421L382 486H449L399 116Q398 108 398 101T397 88Q397 58 407 50T427 42Q444 42 456 47T464
51L472 5Q480 10 471 5T446 -7T414 -14Q399 -14 380 -6T348 23T337 77H333Q332 74 325 60T302 29T255 -1T176 -14Q106 -14 77 25T47 123Q47 144 50 166L87 422L89 486H155ZM349 732H458L303 587H239L349 732Z" />
<glyph unicode="&#xfb;" horiz-adv-x="516" d="M155 486L112 172Q111 159 110 147T109 124Q109 72 129 51T185 30Q196 30 213 31T250 43T291 77T328 147T355 264L379 421L382 486H449L399 116Q398 108 398 101T397 88Q397 58 407 50T427 42Q444 42 456 47T464
51L472 5Q480 10 471 5T446 -7T414 -14Q399 -14 380 -6T348 23T337 77H333Q332 74 325 60T302 29T255 -1T176 -14Q106 -14 77 25T47 123Q47 144 50 166L87 422L89 486H155ZM289 671L191 581H134L262 739H337L424 579H365L289 671Z" />
<glyph unicode="&#xfc;" horiz-adv-x="516" d="M155 486L112 172Q111 159 110 147T109 124Q109 72 129 51T185 30Q196 30 213 31T250 43T291 77T328 147T355 264L379 421L382 486H449L399 116Q398 108 398 101T397 88Q397 58 407 50T427 42Q444 42 456 47T464
51L472 5Q480 10 471 5T446 -7T414 -14Q399 -14 380 -6T348 23T337 77H333Q332 74 325 60T302 29T255 -1T176 -14Q106 -14 77 25T47 123Q47 144 50 166L87 422L89 486H155ZM260 667Q260 642 242 624T199 606Q180 606 168 619T155 652Q155 677 173 695T214 713Q235
713 247 700T260 667ZM419 667Q419 642 401 624T359 606Q339 606 327 619T314 652Q314 678 332 695T374 713Q394 713 406 700T419 667Z" />
<glyph unicode="&#xfd;" horiz-adv-x="404" d="M-22 -171Q9 -169 34 -161T81 -133T123 -81T164 4L61 486H126Q134 445 143 396T161 293T181 188T204 88Q230 140 255 193T304 299T349 398T390 486H447L191 -76Q172 -118 138 -152T61 -206T-31 -230L-22 -171ZM333
732H442L287 587H223L333 732Z" />
<glyph unicode="&#xfe;" horiz-adv-x="508" d="M308 499Q361 499 395 476T445 413T461 327Q461 257 443 195T392 86T313 13T211 -14Q176 -14 152 -3T114 16L91 -168L88 -223H21L144 703L146 761H213L166 417Q192 456 225 477T308 499ZM296 449Q260 449 234 429T191
377T162 309T144 242T135 191Q131 155 128 124T122 68Q134 52 163 45T217 37Q258 37 290 58T344 118T379 212T391 335Q391 362 383 388T354 432T296 449Z" />
<glyph unicode="&#xff;" horiz-adv-x="404" d="M-22 -171Q9 -169 34 -161T81 -133T123 -81T164 4L61 486H126Q134 445 143 396T161 293T181 188T204 88Q230 140 255 193T304 299T349 398T390 486H447L191 -76Q172 -118 138 -152T61 -206T-31 -230L-22 -171ZM244
667Q244 642 226 624T183 606Q164 606 152 619T139 652Q139 677 157 695T198 713Q219 713 231 700T244 667ZM403 667Q403 642 385 624T343 606Q323 606 311 619T298 652Q298 678 316 695T358 713Q378 713 390 700T403 667Z" />
<glyph unicode="&#x2013;" horiz-adv-x="492" d="M0 237L6 274H497L491 237H0Z" />
<glyph unicode="&#x2014;" horiz-adv-x="842" d="M0 237L6 274H847L841 237H0Z" />
<glyph unicode="&#x2018;" horiz-adv-x="164" d="M165 720L192 690Q163 665 151 653T136 634T133 618Q133 608 143 599T164 577T175 548Q175 517 156 502T112 487Q81 487 66 507T51 555Q51 590 67 620T110 675T165 720Z" />
<glyph unicode="&#x2019;" horiz-adv-x="271" d="M220 650Q220 617 204 586T161 530T106 485L79 515Q90 525 103 536T127 559T138 587Q138 597 128 607T107 629T96 657Q96 689 115 703T160 717Q191 717 205 698T220 650Z" />
<glyph unicode="&#x201a;" horiz-adv-x="252" d="M166 44Q166 10 150 -20T107 -75T52 -120L25 -91Q36 -81 49 -71T72 -47T82 -19Q82 -9 72 0T51 22T40 51Q40 83 60 96T106 110Q136 110 151 91T166 44Z" />
<glyph unicode="&#x201c;" horiz-adv-x="356" d="M166 720L194 690Q164 665 152 653T138 634T135 618Q135 608 145 599T166 577T177 548Q177 517 158 502T113 487Q81 487 67 507T53 555Q53 590 69 620T112 675T166 720ZM356 720L384 690Q354 665 342 653T327 634T325
618Q325 608 335 599T356 577T367 548Q367 517 348 503T303 488Q272 488 258 508T243 555Q243 590 259 620T302 675T356 720Z" />
<glyph unicode="&#x201d;" horiz-adv-x="461" d="M220 650Q220 617 204 586T161 530T106 485L79 515Q90 525 103 536T127 559T138 587Q138 597 128 607T107 629T96 657Q96 689 115 703T160 718Q191 718 205 698T220 650ZM410 650Q410 617 393 586T350 530T295
485L269 515Q280 525 293 536T316 559T326 587Q326 597 316 607T295 629T284 657Q284 689 304 703T350 718Q379 718 394 698T410 650Z" />
<glyph unicode="&#x201e;" horiz-adv-x="440" d="M164 44Q164 10 148 -20T106 -76T51 -121L23 -91Q50 -69 62 -57T78 -36T82 -20Q82 -10 72 0T51 22T40 51Q40 83 59 97T104 111Q136 111 150 91T164 44ZM354 44Q354 10 338 -20T296 -76T241 -121L213 -91Q240 -69
252 -57T268 -36T272 -20Q272 -10 262 0T241 22T230 51Q230 83 249 97T294 111Q326 111 340 91T354 44Z" />
<glyph unicode="&#x2022;" horiz-adv-x="386" d="M326 374Q326 339 308 309T260 260T193 241Q147 241 119 269T91 341Q91 375 109 405T157 454T223 473Q270 473 298 445T326 374Z" />
<glyph unicode="&#x2039;" horiz-adv-x="304" d="M68 327L197 483L250 473L148 327L276 181L226 173L68 327Z" />
<glyph unicode="&#x203a;" horiz-adv-x="310" d="M69 178L173 324L47 470L98 480L252 324L120 170L69 178Z" />
</font>
</defs>
</svg>
