<?xml version="1.0" standalone="no"?>
<!DOCTYPE svg PUBLIC "-//W3C//DTD SVG 1.1//EN" "http://www.w3.org/Graphics/SVG/1.1/DTD/svg11.dtd">
<svg xmlns="http://www.w3.org/2000/svg">
<defs >
<font id="Rosario" horiz-adv-x="517" ><font-face
    font-family="Rosario Medium"
    units-per-em="1000"
    panose-1="0 0 0 0 0 0 0 0 0 0"
    ascent="977"
    descent="-235"
    alphabetic="0" />
<glyph unicode=" " horiz-adv-x="230" />
<glyph unicode="!" horiz-adv-x="329" d="M105 729H228L199 217H134L105 729ZM234 55Q234 27 214 7T167 -13Q139 -13 119 7T99 55Q99 83 118 102T167 122Q194 122 214 102T234 55Z" />
<glyph unicode="&quot;" horiz-adv-x="367" d="M97 442Q96 445 92 463T82 502T72 540T68 557V734H153V557L124 442H97ZM243 442L214 557V734H300V557L270 442H243Z" />
<glyph unicode="#" horiz-adv-x="640" d="M286 493H394L425 723H499L468 493H587V423H459L442 300H563V231H432L400 -4H326L358 231H250L217 -4H144L176 231H53V300H185L202 423H79V493H211L242 723H318L286 493ZM276 423L260 300H368L385 423H276Z" />
<glyph unicode="$" horiz-adv-x="536" d="M476 644L426 574Q392 599 356 611T285 624Q237 624 204 598T171 517Q171 489 186 470T227 439T283 414Q318 401 354 386T421 347T472 289T492 201Q492 131 460 84T372 12T250 -12Q201 -12 147 1T42 43L80 130Q118 98
162 82T246 65Q284 65 315 78T365 119T384 186Q384 226 364 250T312 289T242 319Q210 331 178 345T121 380T79 431T63 506Q63 569 93 612T175 677T287 699Q334 699 382 686T476 644ZM276 19L261 -136H185L227 19H276ZM257 669L271 816H348L309 669H257Z" />
<glyph unicode="%" horiz-adv-x="922" d="M616 730H687L312 -6H243L616 730ZM218 730Q277 730 312 702T364 627T381 520Q381 463 362 415T305 338T208 309Q150 309 114 338T61 415T44 520Q44 579 63 626T120 702T218 730ZM213 674Q172 674 151 651T123 592T116
520Q116 483 123 448T151 389T213 366Q255 366 275 389T302 447T309 520Q309 557 302 592T275 650T213 674ZM714 412Q773 412 808 384T860 308T877 201Q877 144 858 96T801 19T704 -10Q646 -10 610 19T558 96T541 201Q541 260 560 307T617 383T714 412ZM709 355Q669
355 648 331T620 272T612 201Q612 165 619 129T647 70T709 47Q751 47 771 70T798 129T805 201Q805 238 798 273T771 331T709 355ZM218 730H634V674H213L218 730Z" />
<glyph unicode="&amp;" horiz-adv-x="661" d="M593 325Q547 159 457 75T238 -9Q168 -9 121 18T49 89T25 185Q25 257 70 318T209 416L234 352Q182 334 153 296T124 201Q124 165 139 132T183 78T255 58Q310 58 363 89T456 183T513 341L593 325ZM673 -2Q655 -5 637
-6T602 -8Q534 -8 478 8T374 59Q308 107 254 181T167 344T135 523Q135 570 146 609T178 678T231 723T304 739Q367 739 402 704T437 609Q437 564 416 516T351 426T238 354L217 417Q264 436 292 468T333 536T346 602Q346 636 335 654T298 672Q265 672 248 638T231
539Q231 454 260 373T339 225T446 119Q484 93 524 80T606 66Q621 66 635 67T662 72L673 -2Z" />
<glyph unicode="&apos;" horiz-adv-x="226" d="M98 446Q97 449 93 466T84 505T74 543T70 560V737H155V560L126 446H98Z" />
<glyph unicode="(" horiz-adv-x="306" d="M219 -139Q140 -47 91 65T42 301Q42 425 90 538T219 743L292 732Q239 667 205 599T153 458T136 301Q136 219 153 145T204 3T292 -129L219 -139Z" />
<glyph unicode=")" horiz-adv-x="306" d="M269 301Q269 178 221 66T91 -139L19 -129Q72 -65 106 2T158 144T176 301Q176 385 159 458T107 599T19 732L91 743Q172 651 220 538T269 301Z" />
<glyph unicode="*" horiz-adv-x="510" d="M209 733H293L275 590H231L209 733ZM286 583L410 650L441 567L300 539L286 583ZM92 646L222 583L208 543L69 564L92 646ZM211 530L248 502L179 376L113 425L211 530ZM260 502L295 526L396 426L328 374L260 502Z" />
<glyph unicode="+" horiz-adv-x="642" d="M353 0H280V213H68V285H280V497H353V285H567V213H353V0Z" />
<glyph unicode="," horiz-adv-x="235" d="M107 127Q143 127 163 101T183 40Q183 -12 152 -55T80 -128Q71 -120 62 -111T45 -93Q54 -84 65 -73T84 -48T93 -22Q93 -8 81 1T56 25T44 65Q44 91 62 109T107 127Z" />
<glyph unicode="-" horiz-adv-x="313" d="M42 300H272V221H42V300Z" />
<glyph unicode="." horiz-adv-x="228" d="M176 58Q176 30 156 10T108 -10Q80 -10 60 10T40 58Q40 86 59 106T108 126Q136 126 156 106T176 58Z" />
<glyph unicode="/" horiz-adv-x="326" d="M262 728H334L66 -7H-7L262 728Z" />
<glyph unicode="0" horiz-adv-x="577" d="M294 509Q372 509 424 475T504 382T531 248Q531 174 501 115T416 22T283 -13Q206 -13 153 21T73 115T46 248Q46 324 75 383T160 475T294 509ZM289 443Q247 443 219 426T175 381T151 318T143 248Q143 212 150 178T173 115T218
70T289 53Q331 53 359 70T403 115T426 177T433 248Q433 284 426 318T403 381T359 426T289 443Z" />
<glyph unicode="1" horiz-adv-x="387" d="M46 73H162V399L44 364L25 414L197 497H252V73H363V-1H46V73Z" />
<glyph unicode="2" horiz-adv-x="467" d="M249 510Q291 510 326 497T383 456T405 383Q405 325 373 273T286 172T161 74H429L409 -1H30V61Q106 113 158 156T243 237T289 308T303 371Q303 408 284 424T237 441Q204 441 165 423T94 376L47 435Q97 475 147 492T249 510Z" />
<glyph unicode="3" horiz-adv-x="404" d="M216 510Q285 510 321 481T357 400Q357 362 340 327T291 261T213 202Q249 201 284 186T341 139T364 59Q364 10 346 -28T297 -94T225 -143T138 -175T45 -192T-47 -196L-52 -150Q3 -146 58 -135T160 -100T234 -38T262 54Q262
104 234 128T164 152Q150 152 134 149T102 141L77 190Q116 206 149 229T206 279T245 334T259 389Q259 412 245 426T201 441Q168 441 130 423T68 377L21 439Q64 474 116 492T216 510Z" />
<glyph unicode="4" horiz-adv-x="465" d="M253 498H357V75H459L439 0H357V-185H266V0H-6V43L253 498ZM266 390L92 75H266V390Z" />
<glyph unicode="5" horiz-adv-x="372" d="M119 497H372L346 406H156L115 305Q201 270 255 215T309 77Q309 16 284 -33T215 -118T115 -177T-3 -209L-17 -162Q51 -145 101 -117T178 -44T206 70Q206 117 182 155T117 222T23 270L119 497Z" />
<glyph unicode="6" horiz-adv-x="532" d="M449 732L471 681Q383 644 321 591T220 478T163 356T145 238Q145 185 160 143T203 78T268 54Q307 54 334 75T374 131T388 202Q388 236 375 267T337 317T272 337Q240 337 205 324T136 285L148 352Q182 381 221 394T299
408Q363 408 405 381T469 310T490 217Q490 175 476 134T432 60T360 7T261 -13Q205 -13 155 14T73 96T42 236Q42 325 75 404T167 548T297 660T449 732Z" />
<glyph unicode="7" horiz-adv-x="429" d="M35 497H411V451L132 -186H23L323 415H13L35 497Z" />
<glyph unicode="8" horiz-adv-x="491" d="M254 730Q297 730 336 713T399 661T423 572Q423 521 393 471T300 380L252 422Q296 450 318 488T340 566Q340 600 328 622T296 656T255 668Q233 668 212 656T178 620T165 560Q165 523 181 499T224 454T280 412Q310 392
339 371T393 323T433 262T448 183Q448 118 418 75T339 10T238 -11Q188 -10 144 9T71 68T43 166Q43 210 60 247T109 316T189 380L233 337Q190 309 168 280T139 223T131 169Q131 130 146 104T185 65T237 52Q265 52 289 65T330 106T346 173Q346 213 324 241T266 294T195
346Q162 371 133 399T86 463T67 549Q67 606 94 646T165 708T254 730Z" />
<glyph unicode="9" horiz-adv-x="530" d="M269 509Q326 509 376 482T457 401T488 260Q488 172 454 96T363 -42T232 -147T81 -215L59 -165Q147 -129 209 -80T310 27T367 144T385 258Q385 313 370 354T327 419T261 443Q223 443 197 421T156 365T142 295Q142 261
155 230T193 180T258 160Q290 160 325 172T394 212L382 144Q348 116 309 103T231 89Q167 89 125 116T61 187T40 280Q40 321 54 362T98 436T169 489T269 509Z" />
<glyph unicode=":" horiz-adv-x="331" d="M231 365Q231 338 211 318T163 297Q135 297 115 317T95 365Q95 393 115 413T163 433Q190 433 210 413T231 365ZM231 55Q231 27 211 7T163 -13Q135 -13 115 7T95 55Q95 83 115 103T163 123Q190 123 210 103T231 55Z" />
<glyph unicode=";" horiz-adv-x="334" d="M163 433Q191 433 211 413T231 366Q231 337 212 317T163 297Q135 297 115 317T95 365Q95 393 115 413T163 433ZM155 127Q191 127 211 101T231 40Q231 -12 200 -55T127 -128L93 -93Q101 -84 112 -73T132 -48T141 -22Q141
-8 129 1T104 25T91 65Q91 91 110 109T155 127Z" />
<glyph unicode="&lt;" horiz-adv-x="630" d="M66 285L564 504V425L166 249L564 73V-5L66 216V285Z" />
<glyph unicode="=" horiz-adv-x="630" d="M68 379H567V305H68V379ZM68 186H567V112H68V186Z" />
<glyph unicode="&gt;" horiz-adv-x="630" d="M66 73L464 249L66 425V504L564 285V216L66 -5V73Z" />
<glyph unicode="?" horiz-adv-x="438" d="M190 723Q241 723 286 704T361 648T390 552Q390 502 369 465T310 401T225 358V217H152V414Q186 419 219 435T273 479T294 546Q294 597 258 621T173 646Q148 646 122 638T76 614L45 685Q73 702 113 712T190 723ZM186 123Q214
123 234 103T254 55Q254 27 234 7T186 -13Q158 -13 138 7T118 55Q118 84 137 103T186 123Z" />
<glyph unicode="@" horiz-adv-x="1027" d="M553 729Q639 729 716 703T852 625T944 500T978 331Q978 270 961 210T912 101T834 23T731 -6Q700 -6 673 -1T626 22T596 71H592Q568 31 529 9T450 -13Q395 -13 361 15T311 91T295 194Q295 250 310 305T357 405T436 477T547
504Q574 504 603 495T659 460L681 496H729Q714 396 704 329T687 220T677 153T672 117T671 97Q671 77 685 65T734 53Q776 53 808 77T863 141T898 230T910 331Q910 412 882 475T805 582T691 649T553 672Q445 672 364 631T227 522T145 370T117 201Q117 126 138 58T202
-65T309 -152T460 -184Q511 -184 565 -170L581 -225Q552 -233 522 -237T460 -242Q356 -242 280 -205T152 -105T75 38T49 204Q49 280 69 356T129 499T231 618T372 699T553 729ZM549 438Q506 438 475 418T423 362T394 283T385 196Q385 139 404 97T467 54Q500 54 525
76T568 134T599 217T617 312L632 413Q591 438 549 438Z" />
<glyph unicode="A" horiz-adv-x="631" d="M363 729L617 0H505L424 243H188L105 0H15L269 729H363ZM307 597L213 316H399L307 597Z" />
<glyph unicode="B" horiz-adv-x="614" d="M538 559Q538 521 523 487T479 428T410 397Q460 390 496 363T551 295T571 204Q571 140 548 100T484 38T393 8T290 0H82V664Q82 665 79 679T72 710T68 729H314Q357 729 397 722T469 695T519 644T538 559ZM432 554Q432 593
416 614T371 645T310 654H183V430H289Q333 430 365 442T414 481T432 554ZM464 219Q464 269 438 299T372 342T288 356H183V75H294Q344 75 382 87T442 132T464 219Z" />
<glyph unicode="C" horiz-adv-x="624" d="M377 -12Q290 -12 227 17T123 99T61 216T41 354Q41 430 63 499T129 622T236 708T384 739Q419 739 461 731T542 706T606 662L550 598Q531 620 503 634T443 657T383 665Q325 665 282 639T210 569T167 470T152 358Q152 268
180 203T261 103T384 67Q426 67 474 79T575 117L608 57Q585 41 557 28T497 6T435 -7T377 -12Z" />
<glyph unicode="D" horiz-adv-x="699" d="M658 363Q658 257 621 176T510 47T324 0H83V664Q83 665 80 679T73 710T68 729H272Q361 729 432 708T554 642T631 528T658 363ZM552 363Q552 437 534 492T480 583T390 636T264 654H184V75H313Q401 75 453 114T529 219T552 363Z" />
<glyph unicode="E" horiz-adv-x="549" d="M68 729H510V654H184V411H436V338H184V75H510V0H83V664L68 729Z" />
<glyph unicode="F" horiz-adv-x="510" d="M69 729H476V654H184V411H415V338H184V0H83V664L69 729Z" />
<glyph unicode="G" horiz-adv-x="707" d="M385 739Q424 739 469 731T557 704T628 657L571 591Q540 616 513 631T457 655T385 663Q320 663 275 639T202 572T162 476T149 365Q149 311 160 259T198 162T268 92T374 66Q426 66 464 89T523 151T544 241V306H370L382
378H646V173Q646 130 649 87T654 0H600L568 76Q523 29 473 9T356 -12Q277 -12 218 17T120 98T62 216T42 356Q42 437 64 506T128 628T235 710T385 739Z" />
<glyph unicode="H" horiz-adv-x="714" d="M530 341H185V0H83V664Q83 665 80 679T73 710T69 729H185V415H530V729H631V0H530V341Z" />
<glyph unicode="I" horiz-adv-x="268" d="M69 729H184V0H83V664Q83 665 80 679T73 710T69 729Z" />
<glyph unicode="J" horiz-adv-x="268" d="M69 729H185V68Q185 14 178 -34T150 -120T90 -181T-12 -211L-26 -149Q12 -143 35 -123T68 -73T81 -11T84 54V664L69 729Z" />
<glyph unicode="K" horiz-adv-x="583" d="M68 729H184V403L464 729H567L289 405L586 0H461L184 378V0H82V664L68 729Z" />
<glyph unicode="L" horiz-adv-x="514" d="M69 729H184V75H486V0H82V664L69 729Z" />
<glyph unicode="M" horiz-adv-x="838" d="M216 729L389 265Q398 240 406 215T423 158Q431 189 438 213T455 262L626 729H757V0H658V521Q658 539 659 556T661 594Q655 578 648 561T635 526L442 -1H383L188 530Q182 546 176 563T164 594Q165 576 166 560T167 526V0H85V664L70
729H216Z" />
<glyph unicode="N" horiz-adv-x="714" d="M200 729L513 249Q522 235 532 219T552 189Q551 206 550 224T549 258V729H631V-5H563L200 551Q192 565 182 580T162 608Q164 592 165 576T166 543V0H83V663L69 729H200Z" />
<glyph unicode="O" horiz-adv-x="737" d="M367 -11Q286 -11 225 19T123 101T62 220T41 364Q41 440 61 507T122 627T224 709T368 739Q451 739 512 710T615 628T676 508T696 363Q696 287 675 220T613 100T511 19T367 -11ZM369 62Q432 62 474 88T541 159T578 256T590
363Q590 416 579 469T542 566T474 637T369 664Q307 664 264 638T196 567T160 470T149 364Q149 311 160 258T196 161T264 89T369 62Z" />
<glyph unicode="P" horiz-adv-x="575" d="M67 729H288Q360 729 416 707T505 637T537 509Q537 435 503 387T413 314T289 289H183V0H82V664L67 729ZM184 654V362H288Q355 362 393 403T431 509Q431 577 395 615T289 654H184Z" />
<glyph unicode="Q" horiz-adv-x="737" d="M1160 -173Q1131 -184 1105 -192T1054 -207T999 -217T935 -221Q890 -221 837 -208T727 -173T617 -127T517 -80T436 -42Q406 -28 373 -21T306 -6Q211 16 153 69T68 199T41 363Q41 438 61 505T121 626T224 709T369 739Q452
739 513 709T615 625T676 505T696 363Q696 293 677 225T614 102T500 16Q504 15 508 14T515 10Q539 -2 579 -22T669 -64T772 -106T877 -138T970 -151Q991 -151 1022 -147T1085 -135T1143 -120L1160 -173ZM369 62Q431 62 473 88T541 158T578 255T590 363Q590 418
579 471T541 568T473 638T369 664Q307 664 265 638T198 567T161 470T149 362Q149 309 160 256T197 159T265 89T369 62Z" />
<glyph unicode="R" horiz-adv-x="591" d="M67 729H291Q359 729 415 711T504 650T537 528Q537 488 518 451T466 386T395 346L602 0H485L295 327H183V0H82V664L67 729ZM183 654V400H260Q308 400 346 411T408 451T431 533Q431 574 411 600T359 640T288 654H183Z" />
<glyph unicode="S" horiz-adv-x="516" d="M280 739Q331 739 379 725T471 684L421 614Q390 637 354 650T279 664Q228 664 192 639T156 557Q156 526 173 504T218 465T280 432Q315 416 351 397T418 353T468 291T487 201Q487 129 452 82T360 11T236 -12Q180 -12 128
2T27 43L65 130Q98 101 145 83T236 64Q269 64 301 76T356 116T379 186Q379 228 358 256T304 303T232 340Q199 356 166 373T107 413T64 468T48 546Q48 610 82 653T169 717T280 739Z" />
<glyph unicode="T" horiz-adv-x="578" d="M236 654H22V729H556V654H339V0H236V654Z" />
<glyph unicode="U" horiz-adv-x="707" d="M186 729V244Q186 161 228 112T358 62Q418 62 458 86T520 154T541 256V729H624V262Q624 174 592 113T498 20T352 -12Q224 -12 154 55T83 250V664L68 729H186Z" />
<glyph unicode="V" horiz-adv-x="603" d="M125 729L280 264Q288 238 295 214T310 161Q318 189 324 213T340 262L500 729H586L334 -3H268L17 729H125Z" />
<glyph unicode="W" horiz-adv-x="894" d="M120 729L241 283Q249 255 255 227T269 164Q276 198 282 226T296 282L417 729H499L620 279Q627 253 633 225T646 164Q653 198 659 226T674 281L795 729H879L680 -4H594L470 452Q464 473 459 495T448 546Q442 516 436 490T423
439L303 -4H216L15 729H120Z" />
<glyph unicode="X" horiz-adv-x="585" d="M142 729L577 0H459L26 729H142ZM451 729H558L114 0H8L451 729Z" />
<glyph unicode="Y" horiz-adv-x="584" d="M143 729L308 448L464 729H557L346 355V0H244V355L28 729H143Z" />
<glyph unicode="Z" horiz-adv-x="571" d="M53 729H527V661L153 75H541L532 0H31V70L404 654H53V729Z" />
<glyph unicode="[" horiz-adv-x="351" d="M76 730H286V680H164V-78H286V-129H76V730Z" />
<glyph unicode="\" horiz-adv-x="326" d="M-6 729H68L332 0H260L-6 729Z" />
<glyph unicode="]" horiz-adv-x="350" d="M66 -77H187V680H65V730H275V-128H66V-77Z" />
<glyph unicode="^" horiz-adv-x="618" d="M313 398L137 0H58L277 497H347L567 0H489L313 398Z" />
<glyph unicode="_" horiz-adv-x="499" d="M-8 -63H508V-129H-8V-63Z" />
<glyph unicode="`" horiz-adv-x="281" d="M154 733L252 579H170L28 733H154Z" />
<glyph unicode="a" horiz-adv-x="494" d="M253 509Q332 509 373 467T414 345V102Q414 79 422 71T442 63Q451 63 461 65T480 72L498 16Q481 6 456 -1T405 -9Q377 -9 356 5T329 59Q300 27 262 8T179 -11Q120 -11 81 23T41 119Q41 176 68 210T139 261T232 285T324
291V346Q324 374 317 395T292 428T243 441Q206 441 171 425T103 382L60 445Q102 477 151 493T253 509ZM324 223Q298 223 266 221T203 209T154 180T134 124Q134 93 155 78T209 63Q243 63 269 82T309 131T324 193V223Z" />
<glyph unicode="b" horiz-adv-x="558" d="M309 507Q361 507 399 485T463 426T502 343T515 251Q515 200 502 153T460 69T391 9T293 -13Q251 -13 213 3T147 52L128 -1H76Q77 16 78 33T79 67V706L65 763H169V493Q169 480 169 471T167 452Q199 481 232 494T309 507ZM284
432Q252 432 222 417T169 379V200Q169 160 180 127T219 73T290 53Q327 53 352 72T391 121T412 184T419 247Q419 279 412 311T388 371T347 415T284 432Z" />
<glyph unicode="c" horiz-adv-x="450" d="M276 509Q313 509 352 497T427 459L380 397Q352 420 326 430T274 441Q243 441 219 426T176 386T148 325T138 249Q138 157 179 108T284 58Q313 58 340 67T398 93L425 37Q385 12 348 0T265 -13Q198 -13 148 20T70 112T41
252Q41 330 72 388T157 477T276 509Z" />
<glyph unicode="d" horiz-adv-x="558" d="M266 508Q298 508 332 498T390 466Q389 481 389 494T388 521V705L374 763H477V143Q477 122 480 96T489 46T507 2L413 -9Q406 7 402 24T395 58Q369 24 330 6T249 -13Q197 -13 158 9T93 68T55 151T42 244Q42 296 55 343T97
428T167 486T266 508ZM269 437Q231 437 206 420T165 375T144 315T138 250Q138 217 145 185T168 124T210 80T276 63Q309 63 338 82T388 127V294Q388 332 376 364T338 417T269 437Z" />
<glyph unicode="e" horiz-adv-x="494" d="M269 509Q331 509 372 484T434 414T455 313Q455 298 454 283T450 252H136Q136 160 177 110T287 59Q316 59 347 68T414 96L445 43Q410 15 365 1T275 -13Q216 -13 172 8T99 65T56 147T41 243Q41 294 55 341T98 426T169 487T269
509ZM262 443Q228 443 203 424T162 376T141 317H361Q363 357 352 385T317 428T262 443Z" />
<glyph unicode="f" horiz-adv-x="288" d="M304 771Q331 771 354 766T401 746L377 681Q364 692 344 698T307 705Q273 705 251 693T215 660T194 613T185 556T182 497H321L302 432H182V0H93V432H17V487Q33 489 49 490T78 500T95 528Q105 573 110 602T125 655T158
706Q183 736 220 753T304 771Z" />
<glyph unicode="g" horiz-adv-x="477" d="M220 510Q249 510 275 503T329 495Q368 495 408 499T492 510L473 436H392Q385 436 378 436T364 438Q381 416 389 392T398 341Q398 291 375 251T309 189T207 166Q184 166 166 154T147 115Q147 98 157 91T182 82T212 80H300Q327
80 355 77T406 63T445 31T460 -25Q460 -80 438 -119T378 -183T294 -219T200 -230Q172 -230 140 -224T80 -204T35 -165T17 -104Q17 -65 41 -35T97 14V17Q76 27 63 46T50 88Q50 101 60 112T86 142T120 194Q84 218 63 255T41 337Q41 386 65 425T131 487T220 510ZM220
447Q197 447 178 432T147 393T135 337Q135 306 146 281T177 242T219 227Q258 227 281 257T305 336Q305 367 294 392T263 432T220 447ZM160 -1Q141 -14 126 -38T110 -86Q110 -110 127 -126T169 -151T215 -159Q240 -159 268 -154T321 -137T361 -105T376 -54Q376 -28
360 -17T321 -4T275 -1H160Z" />
<glyph unicode="h" horiz-adv-x="547" d="M169 763V440Q200 469 237 489T318 510Q374 510 406 488T454 426T469 334V0H380V309Q380 339 376 367T355 413T300 432Q277 432 253 423T208 399T169 368V0H80V705L67 763H169Z" />
<glyph unicode="i" horiz-adv-x="251" d="M188 667Q188 640 170 622T124 603Q98 603 80 621T61 667Q61 693 79 711T124 730Q151 730 169 712T188 667ZM170 497V0H81V439L69 497H170Z" />
<glyph unicode="j" horiz-adv-x="251" d="M190 667Q190 640 172 622T126 603Q100 603 81 621T62 667Q62 693 81 711T126 730Q152 730 171 712T190 667ZM170 497V33Q170 -7 165 -50T145 -131T101 -195T22 -227L7 -185Q44 -165 59 -132T77 -58T81 18V439L68 497H170Z" />
<glyph unicode="k" horiz-adv-x="464" d="M169 763V292L349 497H443L258 288L471 0H365L169 267V0H79V705L66 763H169Z" />
<glyph unicode="l" horiz-adv-x="251" d="M170 763V0H80V706L68 763H170Z" />
<glyph unicode="m" horiz-adv-x="829" d="M145 505Q152 489 156 471T163 437Q182 455 205 471T256 498T310 509Q357 509 390 490T444 428Q465 449 490 467T543 497T601 509Q656 509 689 486T736 424T750 333V0H661V310Q661 332 659 353T648 392T624 421T581 432Q548
432 515 410T460 366V0H370V311Q370 332 368 353T358 392T334 421T290 432Q269 432 247 422T205 396T169 368V0H79V360Q79 381 76 405T65 453T47 494L145 505Z" />
<glyph unicode="n" horiz-adv-x="547" d="M144 506Q151 489 155 471T162 436Q192 465 233 487T317 509Q372 509 405 487T453 425T468 333V0H379V308Q379 338 375 366T354 413T299 432Q276 432 252 423T207 399T168 368V0H79V353Q79 372 76 398T66 451T46 493L144 506Z" />
<glyph unicode="o" horiz-adv-x="537" d="M265 -13Q192 -13 142 23T66 118T41 245Q41 296 56 343T101 428T174 487T271 509Q345 509 395 474T471 379T496 251Q496 200 481 153T436 68T364 9T265 -13ZM266 53Q304 53 330 71T371 119T393 183T400 248Q400 280 394
314T374 377T334 424T270 443Q232 443 207 425T166 377T144 313T137 248Q137 218 143 184T164 121T204 72T266 53Z" />
<glyph unicode="p" horiz-adv-x="556" d="M143 505Q150 489 154 472T161 438Q186 471 225 490T305 509Q359 509 398 487T462 428T501 345T514 252Q514 200 500 153T458 68T388 9T289 -12Q256 -12 223 -2T166 30Q168 16 168 2T168 -21V-158L182 -216H78V353Q78
374 76 399T67 450T48 493L143 505ZM279 433Q246 433 217 414T168 369V202Q168 164 179 131T217 79T285 59Q323 59 348 76T389 120T411 181T418 246Q418 279 411 312T388 372T345 416T279 433Z" />
<glyph unicode="q" horiz-adv-x="556" d="M262 509Q304 509 343 493T409 443L428 497H480Q479 480 478 463T477 429V-158Q477 -159 480 -172T486 -199T490 -216H387V-29Q387 -15 387 -3T388 21T390 44Q359 16 325 2T247 -12Q195 -12 157 10T93 71T54 154T41 245Q41
297 54 344T95 428T164 487T262 509ZM266 443Q230 443 205 424T166 375T144 311T137 247Q137 216 144 184T168 124T209 80T272 63Q303 63 334 78T387 117V295Q387 336 376 369T338 423T266 443Z" />
<glyph unicode="r" horiz-adv-x="349" d="M143 506Q162 461 167 411Q192 452 236 479T330 506L310 412Q263 412 229 388T168 324V0H79V361Q79 380 76 405T66 455T47 495L143 506Z" />
<glyph unicode="s" horiz-adv-x="430" d="M243 509Q277 509 312 501T376 475L344 407Q323 425 296 434T243 443Q208 443 182 427T155 378Q155 355 166 340T195 315T235 293Q260 282 285 270T332 240T368 198T382 136Q382 86 357 53T291 3T204 -13Q164 -13 123
-2T48 29L84 94Q108 76 138 65T196 54Q233 54 260 71T287 124Q287 149 273 165T235 193T186 217Q156 231 128 248T81 292T62 362Q62 411 88 443T155 492T243 509Z" />
<glyph unicode="t" horiz-adv-x="327" d="M202 640Q195 605 190 569T182 497H311L293 431H182V121Q182 103 186 89T201 66T233 57Q249 57 265 60T297 67L311 8Q285 1 261 -5T208 -11Q144 -11 118 22T92 118V431H17V484Q47 485 67 500T101 538T123 588T137 640H202Z" />
<glyph unicode="u" horiz-adv-x="553" d="M168 497V189Q168 161 172 132T194 84T247 65Q283 65 312 80T359 122T378 186V439Q378 440 375 453T369 481T365 497H468V103Q468 82 475 73T496 63Q510 63 534 72L552 16Q532 5 507 -2T459 -9Q432 -9 411 6T384 59Q354
28 314 8T229 -13Q174 -13 141 9T92 71T77 163V439L65 497H168Z" />
<glyph unicode="v" horiz-adv-x="455" d="M105 497L210 197Q217 178 222 160T234 117Q240 140 245 158T256 194L362 497H446L268 -6H186L9 497H105Z" />
<glyph unicode="w" horiz-adv-x="658" d="M102 497L184 220Q189 205 192 189T199 152Q203 173 206 188T215 218L302 497H371L454 220Q459 205 462 189T469 152Q473 173 477 189T485 220L571 497H650L493 -6H427Q410 52 393 105T360 216T328 340Q311 273 294 216T260
106T223 -6H156L8 497H102Z" />
<glyph unicode="x" horiz-adv-x="446" d="M121 497L440 -1H338L19 497H121ZM333 497H428L100 -1H6L333 497Z" />
<glyph unicode="y" horiz-adv-x="456" d="M107 497Q129 434 151 371T195 241Q205 211 215 179T235 116Q244 148 254 179T274 241Q296 307 318 370T363 497H447L270 -2Q259 -34 242 -72T201 -142T146 -196T74 -218H36V-147Q40 -148 43 -148T50 -148Q91 -148 118
-124T162 -64T191 3L9 497H107Z" />
<glyph unicode="z" horiz-adv-x="445" d="M53 497H403V446L149 67H416L404 0H29V50L282 430H53V497Z" />
<glyph unicode="{" horiz-adv-x="349" d="M269 -137Q189 -137 155 -93T121 27V190Q121 222 108 249T57 276V324Q85 324 98 338T116 375T121 419V572Q121 623 135 659T182 716T269 737H298V687Q261 687 242 680T216 654T209 600V430Q209 404 205 378T187 331T145
299Q173 289 186 269T204 222T209 169V-7Q209 -40 217 -57T245 -81T298 -87V-137H269Z" />
<glyph unicode="|" horiz-adv-x="235" d="M80 747H156V-109H80V747Z" />
<glyph unicode="}" horiz-adv-x="349" d="M81 737Q161 737 195 693T229 572V409Q229 378 242 351T293 324V276Q265 276 251 261T233 224T229 180V27Q229 -23 215 -60T168 -117T81 -137H52V-87Q89 -87 108 -80T134 -54T141 0V169Q141 196 145 222T164 269T205 300Q178
311 164 331T146 378T141 430V606Q141 640 133 657T106 681T52 687V737H81Z" />
<glyph unicode="~" horiz-adv-x="663" d="M581 298Q567 276 544 253T493 216T437 201Q407 201 380 211T328 235T276 259T221 270Q202 270 186 259T158 231T138 199L83 245Q95 271 116 294T164 332T221 347Q254 347 284 337T342 313T392 289T437 278Q466 278 490
300T527 347L581 298Z" />
<glyph unicode="&#xa0;" horiz-adv-x="230" />
<glyph unicode="&#xa1;" horiz-adv-x="329" d="M226 -232H104L133 279H197L226 -232ZM97 442Q97 469 117 489T165 509Q192 509 212 489T232 442Q232 413 213 394T165 374Q137 374 117 394T97 442Z" />
<glyph unicode="&#xa2;" horiz-adv-x="490" d="M282 485Q316 485 351 474T420 440L377 379Q352 398 329 408T281 418Q244 418 217 397T176 337T162 249Q162 167 196 124T288 81Q337 81 395 112L426 56Q388 33 352 22T273 11Q212 11 166 41T95 125T69 252Q69 323
97 375T175 456T282 485ZM273 35L257 -120H182L223 35H273ZM258 467L272 614H350L310 467H258Z" />
<glyph unicode="&#xa3;" horiz-adv-x="581" d="M52 75H145V503Q145 566 170 609T242 676T349 699Q405 699 451 672T528 598L448 553Q433 582 408 603T348 625Q314 625 292 609T258 566T246 507V75H539V0H52V75ZM69 295L79 361H410L400 295H69Z" />
<glyph unicode="&#xa4;" horiz-adv-x="536" d="M266 459Q330 459 380 419L434 473L487 420L429 363Q444 339 452 311T461 252Q461 221 453 193T429 140L487 84L434 32L381 85Q357 66 328 55T266 44Q234 44 205 55T150 85L98 32L45 85L101 141Q88 164 80 193T71
252Q71 283 79 311T102 363L45 420L98 473L151 418Q175 438 204 448T266 459ZM266 394Q233 394 206 375T164 324T148 252Q148 209 165 177T209 127T266 109Q297 109 324 126T368 176T385 252Q385 291 370 323T328 375T266 394Z" />
<glyph unicode="&#xa5;" horiz-adv-x="604" d="M153 699L318 418L474 699H567L356 325V0H254V325L38 699H153ZM74 389H545L534 323H64L74 389ZM75 252H545L534 187H64L75 252Z" />
<glyph unicode="&#xa6;" horiz-adv-x="238" d="M81 743H155V393H81V743ZM81 234H155V-115H81V234Z" />
<glyph unicode="&#xa7;" horiz-adv-x="496" d="M49 329Q49 382 75 415T142 464Q124 486 112 513T100 576Q100 624 127 659T198 714T294 734Q331 734 369 723T444 689L413 621Q384 645 353 656T293 667Q251 667 223 647T194 592Q194 558 213 534T262 490T326 450T390
405T439 347T458 265Q458 213 432 180T365 131Q384 109 395 82T407 18Q407 -30 380 -65T309 -120T213 -140Q176 -140 138 -129T63 -95L94 -27Q124 -50 155 -61T214 -72Q256 -72 284 -51T313 3Q313 36 294 60T245 105T181 145T117 189T68 247T49 329ZM143 341Q143
305 167 279T227 232T300 185Q327 190 345 207T364 253Q364 290 340 315T281 363T207 409Q180 404 162 387T143 341Z" />
<glyph unicode="&#xa8;" horiz-adv-x="280" d="M115 656Q115 633 98 616T57 598Q34 598 17 615T0 656Q0 680 17 697T57 714Q82 714 98 698T115 656ZM280 656Q280 633 263 616T222 598Q198 598 181 615T164 656Q164 680 181 697T222 714Q246 714 263 698T280 656Z" />
<glyph unicode="&#xa9;" horiz-adv-x="635" d="M590 250Q590 194 569 145T510 58T423 -1T317 -23Q261 -23 212 -2T125 56T66 144T44 250Q44 306 65 356T124 443T211 502T317 523Q374 523 423 502T509 443T568 356T590 250ZM551 250Q551 314 520 367T435 452T317
484Q253 484 200 453T116 368T84 250Q84 186 115 133T200 48T317 16Q382 16 435 47T519 132T551 250ZM435 118Q406 102 384 95T326 87Q278 87 245 109T194 168T177 251Q177 323 219 369T334 415Q359 415 384 406T430 382L397 341Q380 355 365 361T326 368Q298 368
279 350T252 306T243 255Q243 229 252 202T280 155T330 136Q354 136 371 143T407 165L435 118Z" />
<glyph unicode="&#xaa;" horiz-adv-x="315" d="M309 409Q292 400 276 394T243 388Q226 388 212 397T191 426Q173 408 150 398T100 387Q60 387 34 411T8 476Q8 512 24 535T67 570T125 587T186 592V621Q186 645 177 660T139 676Q117 676 92 664T51 634L18 685Q46
707 77 718T145 730Q198 730 224 702T251 620V469Q251 454 256 449T270 443Q275 443 281 444T295 448L309 409ZM186 537Q165 537 140 534T96 519T77 479Q77 463 89 454T118 445Q138 445 153 456T177 486T186 522V537ZM28 329H271V278H28V329Z" />
<glyph unicode="&#xab;" horiz-adv-x="466" d="M52 335L197 500L261 488L144 335L264 180L201 171L52 335ZM203 335L349 500L414 488L297 335L416 180L353 171L203 335Z" />
<glyph unicode="&#xac;" horiz-adv-x="638" d="M500 277H72V341H566V87H500V277Z" />
<glyph unicode="&#xad;" horiz-adv-x="313" d="M42 300H272V221H42V300Z" />
<glyph unicode="&#xae;" horiz-adv-x="467" d="M434 604Q434 549 407 504T334 431T233 404Q177 404 132 431T60 503T33 604Q33 660 59 705T131 778T233 805Q288 805 333 778T406 706T434 604ZM401 604Q401 651 378 688T317 748T233 771Q187 771 150 749T89 689T66
604Q66 559 89 521T149 460T233 437Q279 437 317 460T378 521T401 604ZM151 720H240Q272 720 295 707T319 655Q319 634 306 620T273 597L347 493H285L219 589H203V493H151V720ZM203 681V628H226Q245 628 256 634T267 657Q267 669 257 675T233 681H203Z" />
<glyph unicode="&#xaf;" horiz-adv-x="302" d="M0 689H302V623H0V689Z" />
<glyph unicode="&#xb0;" horiz-adv-x="388" d="M194 742Q235 742 269 722T323 669T343 593Q343 552 323 518T270 464T194 444Q153 444 119 464T65 518T45 593Q45 635 65 668T119 722T194 742ZM194 681Q158 681 133 655T108 593Q108 557 132 531T194 505Q231 505
255 531T279 593Q279 629 255 655T194 681Z" />
<glyph unicode="&#xb1;" horiz-adv-x="632" d="M353 101H280V263H68V335H280V496H353V336H567V263H353V101ZM68 72H567V-1H68V72Z" />
<glyph unicode="&#xb2;" horiz-adv-x="455" d="M55 475Q55 475 73 490T120 530T180 588T240 656T287 727T305 795Q305 826 285 846T229 867Q205 867 182 859T142 841T114 822T104 814L69 864Q69 864 81 873T117 896T172 919T246 929Q301 929 333 911T380 862T395
802Q395 757 373 714T319 634T254 568T199 524T177 508H410L390 435H55V475Z" />
<glyph unicode="&#xb3;" horiz-adv-x="455" d="M60 478Q182 484 246 519T310 607Q310 639 292 654T249 673T198 678Q184 678 174 677T163 676L154 725Q182 731 214 741T268 772T291 823Q291 845 273 856T225 867Q194 867 158 852T98 817L64 866Q99 894 149 911T244
929Q274 929 304 921T354 894T374 839Q374 810 361 789T326 754T281 730Q313 726 339 712T380 674T396 615Q396 589 383 557T334 496T235 447T71 423L60 478Z" />
<glyph unicode="&#xb4;" horiz-adv-x="281" d="M130 733H256L114 579H31L130 733Z" />
<glyph unicode="&#xb5;" horiz-adv-x="554" d="M555 21Q532 13 506 2T455 -9Q424 -9 407 11T384 59Q357 32 316 10T236 -12Q203 -12 171 2V-187H78V439Q78 440 76 453T70 481T66 497H168V190Q168 162 172 133T194 85T247 65Q271 65 295 74T341 97T379 128V439Q379
440 376 453T370 481T366 497H468V103Q468 92 469 83T476 69T490 63Q493 63 503 65T524 71T537 76L555 21Z" />
<glyph unicode="&#xb6;" horiz-adv-x="504" d="M157 -110Q193 -118 213 -97T233 -45V317Q179 317 135 342T66 411T40 513Q40 584 69 629T149 696T263 718H459V661H403V10Q403 -23 386 -50T340 -90T278 -99Q269 -123 249 -139T202 -159T147 -154L157 -110ZM290
661V-45Q319 -45 333 -28T347 12V661H290Z" />
<glyph unicode="&#xb7;" horiz-adv-x="293" d="M215 260Q215 232 195 213T147 193Q119 193 99 212T79 259Q79 288 98 308T147 328Q175 328 195 308T215 260Z" />
<glyph unicode="&#xb8;" horiz-adv-x="280" d="M113 9H163L133 -46Q188 -46 218 -67T248 -127Q248 -173 213 -196T132 -220Q106 -220 80 -213T31 -192L55 -145Q71 -156 87 -161T119 -167Q137 -167 150 -158T163 -129Q163 -109 150 -97T108 -85Q98 -85 86 -86T59
-92L113 9Z" />
<glyph unicode="&#xb9;" horiz-adv-x="455" d="M86 497H211V835L90 800L70 853L241 919H298V497H399V435H86V497Z" />
<glyph unicode="&#xba;" horiz-adv-x="332" d="M171 737Q220 737 253 714T304 651T322 565Q322 518 303 479T248 417T162 393Q113 393 80 416T29 479T11 565Q11 612 30 650T85 713T171 737ZM166 684Q135 684 117 665T92 619T84 565Q84 541 92 513T118 466T167
446Q198 446 215 465T240 512T248 565Q248 591 241 618T216 665T166 684ZM45 329H288V278H45V329Z" />
<glyph unicode="&#xbb;" horiz-adv-x="466" d="M264 334L114 169L52 178L170 334L54 486L118 498L264 334ZM416 334L266 169L203 178L323 334L206 486L270 498L416 334Z" />
<glyph unicode="&#xbc;" horiz-adv-x="1126" d="M714 730H785L410 -6H341L714 730ZM86 307H211V645L90 610L70 663L241 729H298V307H399V245H86V307ZM934 108H706V151L934 484H1021V171H1095L1077 108H1021V0H934V108ZM938 381L797 171H934L938 381Z" />
<glyph unicode="&#xbd;" horiz-adv-x="1126" d="M714 730H785L410 -6H341L714 730ZM86 307H211V645L90 610L70 663L241 729H298V307H399V245H86V307ZM726 40Q726 40 744 55T790 95T851 153T911 221T958 293T976 360Q976 392 956 412T900 433Q875 433 853 425T813
406T785 387T774 379L740 429Q740 429 752 439T787 462T843 485T917 495Q972 495 1004 476T1051 428T1066 367Q1066 322 1044 279T990 199T925 134T870 89T848 73H1081L1060 0H726V40Z" />
<glyph unicode="&#xbe;" horiz-adv-x="1126" d="M714 730H785L410 -6H341L714 730ZM60 288Q182 294 246 329T310 417Q310 449 292 464T249 483T198 488Q184 488 174 487T163 486L154 535Q182 541 214 551T268 582T291 633Q291 655 273 666T225 677Q194 677 158
662T98 627L64 676Q99 704 149 721T244 739Q274 739 304 731T354 704T374 649Q374 620 361 599T326 564T281 540Q313 536 339 522T380 484T396 425Q396 399 383 367T334 306T235 257T71 233L60 288ZM934 108H706V151L934 484H1021V171H1095L1077 108H1021V0H934V108ZM938
381L797 171H934L938 381Z" />
<glyph unicode="&#xbf;" horiz-adv-x="431" d="M246 -226Q195 -226 149 -208T74 -151T45 -56Q45 -5 67 32T126 95T210 138V279H283V83Q249 77 217 61T163 17T141 -50Q141 -101 177 -125T262 -150Q288 -150 313 -141T359 -118L390 -189Q363 -206 322 -216T246 -226ZM250
373Q222 373 202 393T182 441Q182 469 202 489T250 509Q278 509 298 489T318 441Q318 412 298 393T250 373Z" />
<glyph unicode="&#xc0;" horiz-adv-x="631" d="M363 729L617 0H505L424 243H188L105 0H15L269 729H363ZM307 597L213 316H399L307 597ZM261 908L360 775H277L135 908H261Z" />
<glyph unicode="&#xc1;" horiz-adv-x="631" d="M363 729L617 0H505L424 243H188L105 0H15L269 729H363ZM307 597L213 316H399L307 597ZM373 908H500L358 775H275L373 908Z" />
<glyph unicode="&#xc2;" horiz-adv-x="631" d="M363 729L617 0H505L424 243H188L105 0H15L269 729H363ZM307 597L213 316H399L307 597ZM315 834L240 775H168L272 908H358L459 776H389L315 834Z" />
<glyph unicode="&#xc3;" horiz-adv-x="631" d="M363 729L617 0H505L424 243H188L105 0H15L269 729H363ZM307 597L213 316H399L307 597ZM472 886Q471 862 460 839T430 800T384 784Q356 784 332 794T285 813T238 823Q225 823 216 815T203 796H151Q153 822 165 845T198
883T247 899Q274 899 298 889T344 869T385 859Q398 859 408 866T422 886H472Z" />
<glyph unicode="&#xc4;" horiz-adv-x="631" d="M363 729L617 0H505L424 243H188L105 0H15L269 729H363ZM307 597L213 316H399L307 597ZM290 841Q290 817 273 800T232 782Q209 782 192 799T175 841Q175 864 192 881T232 899Q257 899 273 882T290 841ZM455 841Q455
817 438 800T397 782Q373 782 356 799T339 841Q339 864 356 881T397 899Q421 899 438 882T455 841Z" />
<glyph unicode="&#xc5;" horiz-adv-x="631" d="M363 729L617 0H505L424 243H188L105 0H15L269 729H363ZM307 597L213 316H399L307 597ZM315 992Q344 992 366 978T402 942T416 890Q416 850 387 820T315 790Q275 790 245 820T215 890Q215 918 228 941T265 978T315
992ZM315 937Q296 937 283 924T269 890Q269 871 282 858T315 844Q335 844 348 858T362 890Q362 910 349 923T315 937Z" />
<glyph unicode="&#xc6;" horiz-adv-x="818" d="M400 241H214L101 0H9L317 664L303 729H773V655H500V413H734V336H500V76H773V0H400V241ZM249 318H400V640L249 318Z" />
<glyph unicode="&#xc7;" horiz-adv-x="624" d="M377 -12Q290 -12 227 17T123 99T61 216T41 354Q41 430 63 499T129 622T236 708T384 739Q419 739 461 731T542 706T606 662L550 598Q531 620 503 634T443 657T383 665Q325 665 282 639T210 569T167 470T152 358Q152
268 180 203T261 103T384 67Q426 67 474 79T575 117L608 57Q585 41 557 28T497 6T435 -7T377 -12ZM339 9H388L359 -46Q414 -46 443 -67T473 -127Q473 -173 438 -196T357 -220Q332 -220 306 -213T256 -192L281 -145Q296 -156 312 -161T344 -167Q363 -167 375 -158T388
-129Q388 -109 376 -97T334 -85Q324 -85 312 -86T284 -92L339 9Z" />
<glyph unicode="&#xc8;" horiz-adv-x="549" d="M68 729H510V654H184V411H436V338H184V75H510V0H83V664L68 729ZM246 908L345 775H262L120 908H246Z" />
<glyph unicode="&#xc9;" horiz-adv-x="549" d="M68 729H510V654H184V411H436V338H184V75H510V0H83V664L68 729ZM358 908H485L343 775H260L358 908Z" />
<glyph unicode="&#xca;" horiz-adv-x="549" d="M68 729H510V654H184V411H436V338H184V75H510V0H83V664L68 729ZM300 834L225 775H153L257 908H343L444 776H374L300 834Z" />
<glyph unicode="&#xcb;" horiz-adv-x="549" d="M68 729H510V654H184V411H436V338H184V75H510V0H83V664L68 729ZM275 841Q275 817 258 800T217 782Q194 782 177 799T160 841Q160 864 177 881T217 899Q242 899 258 882T275 841ZM440 841Q440 817 423 800T382 782Q358
782 341 799T324 841Q324 864 341 881T382 899Q406 899 423 882T440 841Z" />
<glyph unicode="&#xcc;" horiz-adv-x="268" d="M69 729H184V0H83V664Q83 665 80 679T73 710T69 729ZM335 908L434 775H351L209 908H335Z" />
<glyph unicode="&#xcd;" horiz-adv-x="268" d="M69 729H184V0H83V664Q83 665 80 679T73 710T69 729ZM191 908H318L176 775H93L191 908Z" />
<glyph unicode="&#xce;" horiz-adv-x="268" d="M69 729H184V0H83V664Q83 665 80 679T73 710T69 729ZM389 834L314 775H242L346 908H432L533 776H463L389 834Z" />
<glyph unicode="&#xcf;" horiz-adv-x="268" d="M69 729H184V0H83V664Q83 665 80 679T73 710T69 729ZM364 841Q364 817 347 800T306 782Q283 782 266 799T249 841Q249 864 266 881T306 899Q331 899 347 882T364 841ZM529 841Q529 817 512 800T471 782Q447 782 430
799T413 841Q413 864 430 881T471 899Q495 899 512 882T529 841Z" />
<glyph unicode="&#xd0;" horiz-adv-x="699" d="M658 363Q658 257 621 176T510 47T324 0H83V664Q83 665 80 679T73 710T68 729H272Q361 729 432 708T554 642T631 528T658 363ZM552 363Q552 437 534 492T480 583T390 636T264 654H184V75H313Q401 75 453 114T529
219T552 363ZM285 403H608V334H285V403Z" />
<glyph unicode="&#xd1;" horiz-adv-x="714" d="M200 729L513 249Q522 235 532 219T552 189Q551 206 550 224T549 258V729H631V-5H563L200 551Q192 565 182 580T162 608Q164 592 165 576T166 543V0H83V663L69 729H200ZM513 886Q512 862 501 839T471 800T425 784Q397
784 373 794T326 813T279 823Q266 823 257 815T244 796H192Q194 822 206 845T239 883T288 899Q315 899 339 889T385 869T426 859Q439 859 449 866T463 886H513Z" />
<glyph unicode="&#xd2;" horiz-adv-x="737" d="M367 -11Q286 -11 225 19T123 101T62 220T41 364Q41 440 61 507T122 627T224 709T368 739Q451 739 512 710T615 628T676 508T696 363Q696 287 675 220T613 100T511 19T367 -11ZM369 62Q432 62 474 88T541 159T578
256T590 363Q590 416 579 469T542 566T474 637T369 664Q307 664 264 638T196 567T160 470T149 364Q149 311 160 258T196 161T264 89T369 62ZM315 908L414 775H331L189 908H315Z" />
<glyph unicode="&#xd3;" horiz-adv-x="737" d="M367 -11Q286 -11 225 19T123 101T62 220T41 364Q41 440 61 507T122 627T224 709T368 739Q451 739 512 710T615 628T676 508T696 363Q696 287 675 220T613 100T511 19T367 -11ZM369 62Q432 62 474 88T541 159T578
256T590 363Q590 416 579 469T542 566T474 637T369 664Q307 664 264 638T196 567T160 470T149 364Q149 311 160 258T196 161T264 89T369 62ZM426 908H553L411 775H328L426 908Z" />
<glyph unicode="&#xd4;" horiz-adv-x="737" d="M367 -11Q286 -11 225 19T123 101T62 220T41 364Q41 440 61 507T122 627T224 709T368 739Q451 739 512 710T615 628T676 508T696 363Q696 287 675 220T613 100T511 19T367 -11ZM369 62Q432 62 474 88T541 159T578
256T590 363Q590 416 579 469T542 566T474 637T369 664Q307 664 264 638T196 567T160 470T149 364Q149 311 160 258T196 161T264 89T369 62ZM369 834L294 775H222L326 908H412L513 776H443L369 834Z" />
<glyph unicode="&#xd5;" horiz-adv-x="737" d="M367 -11Q286 -11 225 19T123 101T62 220T41 364Q41 440 61 507T122 627T224 709T368 739Q451 739 512 710T615 628T676 508T696 363Q696 287 675 220T613 100T511 19T367 -11ZM369 62Q432 62 474 88T541 159T578
256T590 363Q590 416 579 469T542 566T474 637T369 664Q307 664 264 638T196 567T160 470T149 364Q149 311 160 258T196 161T264 89T369 62ZM526 886Q525 862 514 839T484 800T438 784Q410 784 386 794T339 813T292 823Q279 823 270 815T257 796H205Q207 822 219
845T252 883T301 899Q328 899 352 889T398 869T439 859Q452 859 462 866T476 886H526Z" />
<glyph unicode="&#xd6;" horiz-adv-x="737" d="M367 -11Q286 -11 225 19T123 101T62 220T41 364Q41 440 61 507T122 627T224 709T368 739Q451 739 512 710T615 628T676 508T696 363Q696 287 675 220T613 100T511 19T367 -11ZM369 62Q432 62 474 88T541 159T578
256T590 363Q590 416 579 469T542 566T474 637T369 664Q307 664 264 638T196 567T160 470T149 364Q149 311 160 258T196 161T264 89T369 62ZM344 841Q344 817 327 800T286 782Q263 782 246 799T229 841Q229 864 246 881T286 899Q311 899 327 882T344 841ZM509 841Q509
817 492 800T451 782Q427 782 410 799T393 841Q393 864 410 881T451 899Q475 899 492 882T509 841Z" />
<glyph unicode="&#xd7;" horiz-adv-x="534" d="M267 199L116 49L69 96L221 246L69 397L116 444L267 294L418 444L465 397L313 246L465 96L418 49L267 199Z" />
<glyph unicode="&#xd8;" horiz-adv-x="737" d="M367 -11Q286 -11 225 19T123 101T62 220T41 364Q41 440 61 507T122 627T224 709T368 739Q451 739 512 710T615 628T676 508T696 363Q696 287 675 220T613 100T511 19T367 -11ZM369 62Q432 62 474 88T541 159T578
256T590 363Q590 416 579 469T542 566T474 637T369 664Q307 664 264 638T196 567T160 470T149 364Q149 311 160 258T196 161T264 89T369 62ZM135 -55L80 -20L596 773L653 739L135 -55Z" />
<glyph unicode="&#xd9;" horiz-adv-x="707" d="M186 729V244Q186 161 228 112T358 62Q418 62 458 86T520 154T541 256V729H624V262Q624 174 592 113T498 20T352 -12Q224 -12 154 55T83 250V664L68 729H186ZM306 908L405 775H322L180 908H306Z" />
<glyph unicode="&#xda;" horiz-adv-x="707" d="M186 729V244Q186 161 228 112T358 62Q418 62 458 86T520 154T541 256V729H624V262Q624 174 592 113T498 20T352 -12Q224 -12 154 55T83 250V664L68 729H186ZM418 908H545L403 775H320L418 908Z" />
<glyph unicode="&#xdb;" horiz-adv-x="707" d="M186 729V244Q186 161 228 112T358 62Q418 62 458 86T520 154T541 256V729H624V262Q624 174 592 113T498 20T352 -12Q224 -12 154 55T83 250V664L68 729H186ZM360 834L285 775H213L317 908H403L504 776H434L360 834Z" />
<glyph unicode="&#xdc;" horiz-adv-x="707" d="M186 729V244Q186 161 228 112T358 62Q418 62 458 86T520 154T541 256V729H624V262Q624 174 592 113T498 20T352 -12Q224 -12 154 55T83 250V664L68 729H186ZM335 841Q335 817 318 800T277 782Q254 782 237 799T220
841Q220 864 237 881T277 899Q302 899 318 882T335 841ZM500 841Q500 817 483 800T442 782Q418 782 401 799T384 841Q384 864 401 881T442 899Q466 899 483 882T500 841Z" />
<glyph unicode="&#xdd;" horiz-adv-x="584" d="M143 729L308 448L464 729H557L346 355V0H244V355L28 729H143ZM357 908H484L342 775H259L357 908Z" />
<glyph unicode="&#xde;" horiz-adv-x="575" d="M187 729V612H282Q354 612 411 592T502 525T536 400Q536 324 501 276T409 205T283 182H186V1H85V664L70 729H187ZM289 256Q355 256 392 296T429 400Q429 464 394 501T290 538H186V256H289Z" />
<glyph unicode="&#xdf;" horiz-adv-x="559" d="M23 431V491Q51 491 67 497T93 520T109 563Q121 616 146 656T211 719T309 742Q358 742 397 727T458 684T481 616Q481 575 466 545T429 492T385 450T347 413T331 374Q331 347 346 331T386 303T437 278T487 249T526
205T542 136Q542 78 512 43T434 -5T334 -11T236 29L272 94Q297 71 326 62T384 55T430 75T448 124Q448 150 433 167T394 198T343 223T292 252T253 294T238 356Q238 389 253 413T289 457T332 498T369 543T384 597Q384 616 376 632T350 657T306 667Q267 667 244 648T208
599T191 536T187 472V0H97V431H23Z" />
<glyph unicode="&#xe0;" horiz-adv-x="494" d="M253 509Q332 509 373 467T414 345V102Q414 79 422 71T442 63Q451 63 461 65T480 72L498 16Q481 6 456 -1T405 -9Q377 -9 356 5T329 59Q300 27 262 8T179 -11Q120 -11 81 23T41 119Q41 176 68 210T139 261T232 285T324
291V346Q324 374 317 395T292 428T243 441Q206 441 171 425T103 382L60 445Q102 477 151 493T253 509ZM324 223Q298 223 266 221T203 209T154 180T134 124Q134 93 155 78T209 63Q243 63 269 82T309 131T324 193V223ZM188 733L287 579H204L62 733H188Z" />
<glyph unicode="&#xe1;" horiz-adv-x="494" d="M253 509Q332 509 373 467T414 345V102Q414 79 422 71T442 63Q451 63 461 65T480 72L498 16Q481 6 456 -1T405 -9Q377 -9 356 5T329 59Q300 27 262 8T179 -11Q120 -11 81 23T41 119Q41 176 68 210T139 261T232 285T324
291V346Q324 374 317 395T292 428T243 441Q206 441 171 425T103 382L60 445Q102 477 151 493T253 509ZM324 223Q298 223 266 221T203 209T154 180T134 124Q134 93 155 78T209 63Q243 63 269 82T309 131T324 193V223ZM298 733H425L283 579H200L298 733Z" />
<glyph unicode="&#xe2;" horiz-adv-x="494" d="M253 509Q332 509 373 467T414 345V102Q414 79 422 71T442 63Q451 63 461 65T480 72L498 16Q481 6 456 -1T405 -9Q377 -9 356 5T329 59Q300 27 262 8T179 -11Q120 -11 81 23T41 119Q41 176 68 210T139 261T232 285T324
291V346Q324 374 317 395T292 428T243 441Q206 441 171 425T103 382L60 445Q102 477 151 493T253 509ZM324 223Q298 223 266 221T203 209T154 180T134 124Q134 93 155 78T209 63Q243 63 269 82T309 131T324 193V223ZM244 658L171 580H101L202 732H288L392 579H320L244
658Z" />
<glyph unicode="&#xe3;" horiz-adv-x="494" d="M253 509Q332 509 373 467T414 345V102Q414 79 422 71T442 63Q451 63 461 65T480 72L498 16Q481 6 456 -1T405 -9Q377 -9 356 5T329 59Q300 27 262 8T179 -11Q120 -11 81 23T41 119Q41 176 68 210T139 261T232 285T324
291V346Q324 374 317 395T292 428T243 441Q206 441 171 425T103 382L60 445Q102 477 151 493T253 509ZM324 223Q298 223 266 221T203 209T154 180T134 124Q134 93 155 78T209 63Q243 63 269 82T309 131T324 193V223ZM400 702Q399 678 388 655T358 616T312 600Q284
600 260 610T213 629T166 639Q153 639 144 631T131 611H79Q81 638 93 661T126 699T175 714Q202 714 226 705T272 685T313 675Q326 675 336 682T350 702H400Z" />
<glyph unicode="&#xe4;" horiz-adv-x="494" d="M253 509Q332 509 373 467T414 345V102Q414 79 422 71T442 63Q451 63 461 65T480 72L498 16Q481 6 456 -1T405 -9Q377 -9 356 5T329 59Q300 27 262 8T179 -11Q120 -11 81 23T41 119Q41 176 68 210T139 261T232 285T324
291V346Q324 374 317 395T292 428T243 441Q206 441 171 425T103 382L60 445Q102 477 151 493T253 509ZM324 223Q298 223 266 221T203 209T154 180T134 124Q134 93 155 78T209 63Q243 63 269 82T309 131T324 193V223ZM219 909Q219 886 202 869T161 851Q138 851 121
868T104 909Q104 933 121 950T161 967Q186 967 202 951T219 909ZM384 909Q384 886 367 869T326 851Q302 851 285 868T268 909Q268 933 285 950T326 967Q350 967 367 951T384 909Z" />
<glyph unicode="&#xe5;" horiz-adv-x="494" d="M253 509Q332 509 373 467T414 345V102Q414 79 422 71T442 63Q451 63 461 65T480 72L498 16Q481 6 456 -1T405 -9Q377 -9 356 5T329 59Q300 27 262 8T179 -11Q120 -11 81 23T41 119Q41 176 68 210T139 261T232 285T324
291V346Q324 374 317 395T292 428T243 441Q206 441 171 425T103 382L60 445Q102 477 151 493T253 509ZM324 223Q298 223 266 221T203 209T154 180T134 124Q134 93 155 78T209 63Q243 63 269 82T309 131T324 193V223ZM243 760Q272 760 294 747T330 710T344 659Q344
618 315 588T243 558Q203 558 173 588T143 659Q143 686 156 709T193 746T243 760ZM243 705Q224 705 211 692T197 659Q197 639 210 626T243 612Q263 612 276 626T290 658Q290 678 277 691T243 705Z" />
<glyph unicode="&#xe6;" horiz-adv-x="777" d="M41 119Q41 176 68 210T139 261T232 285T324 291V346Q324 374 317 395T292 428T243 441Q219 441 193 434T144 413T103 382L60 445Q102 477 151 493T253 509Q302 509 339 492T397 445Q425 474 464 491T552 509Q614
509 655 484T717 414T738 313Q738 298 737 283T733 252H419Q419 196 437 153T487 84T561 59Q593 59 628 72T688 106L728 43Q705 24 677 12T618 -7T558 -13Q488 -13 439 16T362 95Q327 36 280 13T179 -11Q120 -11 81 23T41 119ZM134 124Q134 93 155 78T209 63Q243
63 269 82T309 131T324 193V223Q298 223 266 221T203 209T154 180T134 124ZM424 317H644Q647 376 621 409T545 443Q511 443 486 424T445 376T424 317Z" />
<glyph unicode="&#xe7;" horiz-adv-x="450" d="M276 509Q313 509 352 497T427 459L380 397Q352 420 326 430T274 441Q243 441 219 426T176 386T148 325T138 249Q138 157 179 108T284 58Q313 58 340 67T398 93L425 37Q385 12 348 0T265 -13Q198 -13 148 20T70 112T41
252Q41 330 72 388T157 477T276 509ZM237 9H286L257 -46Q312 -46 341 -67T371 -127Q371 -173 336 -196T255 -220Q230 -220 204 -213T154 -192L179 -145Q194 -156 210 -161T242 -167Q261 -167 273 -158T286 -129Q286 -109 274 -97T232 -85Q222 -85 210 -86T182 -92L237
9Z" />
<glyph unicode="&#xe8;" horiz-adv-x="494" d="M269 509Q331 509 372 484T434 414T455 313Q455 298 454 283T450 252H136Q136 160 177 110T287 59Q316 59 347 68T414 96L445 43Q410 15 365 1T275 -13Q216 -13 172 8T99 65T56 147T41 243Q41 294 55 341T98 426T169
487T269 509ZM262 443Q228 443 203 424T162 376T141 317H361Q363 357 352 385T317 428T262 443ZM211 733L310 579H227L85 733H211Z" />
<glyph unicode="&#xe9;" horiz-adv-x="494" d="M269 509Q331 509 372 484T434 414T455 313Q455 298 454 283T450 252H136Q136 160 177 110T287 59Q316 59 347 68T414 96L445 43Q410 15 365 1T275 -13Q216 -13 172 8T99 65T56 147T41 243Q41 294 55 341T98 426T169
487T269 509ZM262 443Q228 443 203 424T162 376T141 317H361Q363 357 352 385T317 428T262 443ZM320 733H447L305 579H222L320 733Z" />
<glyph unicode="&#xea;" horiz-adv-x="494" d="M269 509Q331 509 372 484T434 414T455 313Q455 298 454 283T450 252H136Q136 160 177 110T287 59Q316 59 347 68T414 96L445 43Q410 15 365 1T275 -13Q216 -13 172 8T99 65T56 147T41 243Q41 294 55 341T98 426T169
487T269 509ZM262 443Q228 443 203 424T162 376T141 317H361Q363 357 352 385T317 428T262 443ZM267 658L194 580H124L225 732H311L415 579H343L267 658Z" />
<glyph unicode="&#xeb;" horiz-adv-x="494" d="M269 509Q331 509 372 484T434 414T455 313Q455 298 454 283T450 252H136Q136 160 177 110T287 59Q316 59 347 68T414 96L445 43Q410 15 365 1T275 -13Q216 -13 172 8T99 65T56 147T41 243Q41 294 55 341T98 426T169
487T269 509ZM262 443Q228 443 203 424T162 376T141 317H361Q363 357 352 385T317 428T262 443ZM242 909Q242 886 225 869T184 851Q161 851 144 868T127 909Q127 933 144 950T184 967Q209 967 225 951T242 909ZM407 909Q407 886 390 869T349 851Q325 851 308 868T291
909Q291 933 308 950T349 967Q373 967 390 951T407 909Z" />
<glyph unicode="&#xec;" horiz-adv-x="252" d="M81 439Q81 440 78 453T73 480T69 497H170V0H81V439ZM326 733L425 579H342L200 733H326Z" />
<glyph unicode="&#xed;" horiz-adv-x="252" d="M81 439Q81 440 78 453T73 480T69 497H170V0H81V439ZM180 733H307L165 579H82L180 733Z" />
<glyph unicode="&#xee;" horiz-adv-x="252" d="M81 439Q81 440 78 453T73 480T69 497H170V0H81V439ZM382 658L309 580H239L340 732H426L530 579H458L382 658Z" />
<glyph unicode="&#xef;" horiz-adv-x="252" d="M81 439Q81 440 78 453T73 480T69 497H170V0H81V439ZM357 909Q357 886 340 869T299 851Q276 851 259 868T242 909Q242 933 259 950T299 967Q324 967 340 951T357 909ZM522 909Q522 886 505 869T464 851Q440 851 423
868T406 909Q406 933 423 950T464 967Q488 967 505 951T522 909Z" />
<glyph unicode="&#xf0;" horiz-adv-x="536" d="M268 506Q285 506 300 503T329 495Q308 534 285 569T237 636L134 579L101 623L202 679Q188 696 174 711T146 738L207 774Q220 763 235 748T267 715L372 773L403 728L303 673Q338 632 371 583T433 479T477 366T494
247Q494 179 468 120T391 26T268 -10Q196 -10 146 25T69 120T42 247Q42 317 68 375T145 470T268 506ZM268 442Q230 442 205 423T165 373T144 310T138 247Q138 218 144 185T165 121T205 73T268 54Q306 54 332 72T372 120T392 184T398 247Q398 277 392 311T372 374T332
423T268 442Z" />
<glyph unicode="&#xf1;" horiz-adv-x="547" d="M144 506Q151 489 155 471T162 436Q192 465 233 487T317 509Q372 509 405 487T453 425T468 333V0H379V308Q379 338 375 366T354 413T299 432Q276 432 252 423T207 399T168 368V0H79V353Q79 372 76 398T66 451T46
493L144 506ZM438 702Q437 678 426 655T396 616T350 600Q322 600 298 610T251 629T204 639Q191 639 182 631T169 611H117Q119 638 131 661T164 699T213 714Q240 714 264 705T310 685T351 675Q364 675 374 682T388 702H438Z" />
<glyph unicode="&#xf2;" horiz-adv-x="537" d="M265 -13Q192 -13 142 23T66 118T41 245Q41 296 56 343T101 428T174 487T271 509Q345 509 395 474T471 379T496 251Q496 200 481 153T436 68T364 9T265 -13ZM266 53Q304 53 330 71T371 119T393 183T400 248Q400 280
394 314T374 377T334 424T270 443Q232 443 207 425T166 377T144 313T137 248Q137 218 143 184T164 121T204 72T266 53ZM210 733L309 579H226L84 733H210Z" />
<glyph unicode="&#xf3;" horiz-adv-x="537" d="M265 -13Q192 -13 142 23T66 118T41 245Q41 296 56 343T101 428T174 487T271 509Q345 509 395 474T471 379T496 251Q496 200 481 153T436 68T364 9T265 -13ZM266 53Q304 53 330 71T371 119T393 183T400 248Q400 280
394 314T374 377T334 424T270 443Q232 443 207 425T166 377T144 313T137 248Q137 218 143 184T164 121T204 72T266 53ZM320 733H447L305 579H222L320 733Z" />
<glyph unicode="&#xf4;" horiz-adv-x="537" d="M265 -13Q192 -13 142 23T66 118T41 245Q41 296 56 343T101 428T174 487T271 509Q345 509 395 474T471 379T496 251Q496 200 481 153T436 68T364 9T265 -13ZM266 53Q304 53 330 71T371 119T393 183T400 248Q400 280
394 314T374 377T334 424T270 443Q232 443 207 425T166 377T144 313T137 248Q137 218 143 184T164 121T204 72T266 53ZM267 658L194 580H124L225 732H311L415 579H343L267 658Z" />
<glyph unicode="&#xf5;" horiz-adv-x="537" d="M265 -13Q192 -13 142 23T66 118T41 245Q41 296 56 343T101 428T174 487T271 509Q345 509 395 474T471 379T496 251Q496 200 481 153T436 68T364 9T265 -13ZM266 53Q304 53 330 71T371 119T393 183T400 248Q400 280
394 314T374 377T334 424T270 443Q232 443 207 425T166 377T144 313T137 248Q137 218 143 184T164 121T204 72T266 53ZM422 702Q421 678 410 655T380 616T334 600Q306 600 282 610T235 629T188 639Q175 639 166 631T153 611H101Q103 638 115 661T148 699T197 714Q224
714 248 705T294 685T335 675Q348 675 358 682T372 702H422Z" />
<glyph unicode="&#xf6;" horiz-adv-x="537" d="M265 -13Q192 -13 142 23T66 118T41 245Q41 296 56 343T101 428T174 487T271 509Q345 509 395 474T471 379T496 251Q496 200 481 153T436 68T364 9T265 -13ZM266 53Q304 53 330 71T371 119T393 183T400 248Q400 280
394 314T374 377T334 424T270 443Q232 443 207 425T166 377T144 313T137 248Q137 218 143 184T164 121T204 72T266 53ZM242 909Q242 886 225 869T184 851Q161 851 144 868T127 909Q127 933 144 950T184 967Q209 967 225 951T242 909ZM407 909Q407 886 390 869T349
851Q325 851 308 868T291 909Q291 933 308 950T349 967Q373 967 390 951T407 909Z" />
<glyph unicode="&#xf7;" horiz-adv-x="630" d="M379 416Q379 390 361 372T316 353Q290 353 271 371T252 416Q252 443 271 461T316 480Q342 480 360 462T379 416ZM68 283H566V210H68V283ZM379 77Q379 51 361 33T316 14Q290 14 271 32T252 77Q252 104 271 122T316
141Q342 141 360 123T379 77Z" />
<glyph unicode="&#xf8;" horiz-adv-x="537" d="M265 -13Q192 -13 142 23T66 118T41 245Q41 296 56 343T101 428T174 487T271 509Q345 509 395 474T471 379T496 251Q496 200 481 153T436 68T364 9T265 -13ZM266 53Q304 53 330 71T371 119T393 183T400 248Q400 280
394 314T374 377T334 424T270 443Q232 443 207 425T166 377T144 313T137 248Q137 218 143 184T164 121T204 72T266 53ZM107 -65L57 -32L427 566L480 537L107 -65Z" />
<glyph unicode="&#xf9;" horiz-adv-x="553" d="M168 497V189Q168 161 172 132T194 84T247 65Q283 65 312 80T359 122T378 186V439Q378 440 375 453T369 481T365 497H468V103Q468 82 475 73T496 63Q510 63 534 72L552 16Q532 5 507 -2T459 -9Q432 -9 411 6T384
59Q354 28 314 8T229 -13Q174 -13 141 9T92 71T77 163V439L65 497H168ZM219 733L318 579H235L93 733H219Z" />
<glyph unicode="&#xfa;" horiz-adv-x="553" d="M168 497V189Q168 161 172 132T194 84T247 65Q283 65 312 80T359 122T378 186V439Q378 440 375 453T369 481T365 497H468V103Q468 82 475 73T496 63Q510 63 534 72L552 16Q532 5 507 -2T459 -9Q432 -9 411 6T384
59Q354 28 314 8T229 -13Q174 -13 141 9T92 71T77 163V439L65 497H168ZM328 733H455L313 579H230L328 733Z" />
<glyph unicode="&#xfb;" horiz-adv-x="553" d="M168 497V189Q168 161 172 132T194 84T247 65Q283 65 312 80T359 122T378 186V439Q378 440 375 453T369 481T365 497H468V103Q468 82 475 73T496 63Q510 63 534 72L552 16Q532 5 507 -2T459 -9Q432 -9 411 6T384
59Q354 28 314 8T229 -13Q174 -13 141 9T92 71T77 163V439L65 497H168ZM275 658L202 580H132L233 732H319L423 579H351L275 658Z" />
<glyph unicode="&#xfc;" horiz-adv-x="553" d="M168 497V189Q168 161 172 132T194 84T247 65Q283 65 312 80T359 122T378 186V439Q378 440 375 453T369 481T365 497H468V103Q468 82 475 73T496 63Q510 63 534 72L552 16Q532 5 507 -2T459 -9Q432 -9 411 6T384
59Q354 28 314 8T229 -13Q174 -13 141 9T92 71T77 163V439L65 497H168ZM250 909Q250 886 233 869T192 851Q169 851 152 868T135 909Q135 933 152 950T192 967Q217 967 233 951T250 909ZM415 909Q415 886 398 869T357 851Q333 851 316 868T299 909Q299 933 316 950T357
967Q381 967 398 951T415 909Z" />
<glyph unicode="&#xfd;" horiz-adv-x="456" d="M107 497Q129 434 151 371T195 241Q205 211 215 179T235 116Q244 148 254 179T274 241Q296 307 318 370T363 497H447L270 -2Q259 -34 242 -72T201 -142T146 -196T74 -218H36V-147Q40 -148 43 -148T50 -148Q91 -148
118 -124T162 -64T191 3L9 497H107ZM287 733H414L272 579H189L287 733Z" />
<glyph unicode="&#xfe;" horiz-adv-x="556" d="M305 509Q359 509 398 487T462 428T501 345T514 252Q514 200 500 153T458 68T388 9T289 -12Q256 -12 223 -2T166 30Q168 16 168 2T168 -21V-158L182 -216H78V706L65 763H168V446Q193 475 230 492T305 509ZM279 433Q246
433 217 414T168 369V202Q168 164 179 131T217 79T285 59Q323 59 348 76T389 120T411 181T418 246Q418 279 411 312T388 372T345 416T279 433Z" />
<glyph unicode="&#xff;" horiz-adv-x="456" d="M107 497Q129 434 151 371T195 241Q205 211 215 179T235 116Q244 148 254 179T274 241Q296 307 318 370T363 497H447L270 -2Q259 -34 242 -72T201 -142T146 -196T74 -218H36V-147Q40 -148 43 -148T50 -148Q91 -148
118 -124T162 -64T191 3L9 497H107ZM209 909Q209 886 192 869T151 851Q128 851 111 868T94 909Q94 933 111 950T151 967Q176 967 192 951T209 909ZM374 909Q374 886 357 869T316 851Q292 851 275 868T258 909Q258 933 275 950T316 967Q340 967 357 951T374 909Z"
/>
<glyph unicode="&#x2013;" horiz-adv-x="483" d="M0 294H483V227H0V294Z" />
<glyph unicode="&#x2014;" horiz-adv-x="833" d="M0 294H833V227H0V294Z" />
<glyph unicode="&#x2018;" horiz-adv-x="286" d="M174 734L209 699Q201 690 189 678T169 653T160 627Q160 615 172 605T197 581T210 541Q210 515 192 497T147 479Q111 479 91 505T70 566Q70 618 101 661T174 734Z" />
<glyph unicode="&#x2019;" horiz-adv-x="286" d="M77 515Q86 524 97 536T116 561T125 587Q125 601 113 610T88 634T76 673Q76 700 94 717T139 735Q175 735 195 709T215 649Q215 596 184 553T112 480L77 515Z" />
<glyph unicode="&#x201a;" horiz-adv-x="276" d="M70 -93Q79 -84 90 -73T110 -48T119 -22Q119 -8 107 1T82 25T69 65Q69 91 88 109T132 127Q169 127 189 101T209 40Q209 -12 178 -55T105 -128L70 -93Z" />
<glyph unicode="&#x201c;" horiz-adv-x="487" d="M209 541Q209 515 192 497T147 479Q110 479 90 505T70 566Q70 618 101 661T173 734L208 699Q200 690 189 678T169 653T160 627Q160 615 172 605T197 581T209 541ZM406 541Q406 515 388 497T343 479Q307 479 287
505T266 566Q266 618 297 661T370 734L405 699Q397 690 385 678T365 653T356 627Q356 615 368 605T393 581T406 541Z" />
<glyph unicode="&#x201d;" horiz-adv-x="487" d="M80 515Q89 524 100 536T119 561T128 587Q128 601 116 610T92 634T79 673Q79 700 97 717T142 735Q179 735 198 709T218 649Q218 596 187 553T115 480L80 515ZM276 515Q285 524 296 536T316 561T325 587Q325 601
313 610T288 634T275 673Q275 700 294 717T338 735Q375 735 394 709T414 649Q414 596 384 553T311 480L276 515Z" />
<glyph unicode="&#x201e;" horiz-adv-x="477" d="M74 -93Q83 -84 94 -73T114 -48T122 -22Q122 -8 110 1T86 25T73 65Q73 91 91 109T136 127Q173 127 192 101T212 40Q212 -12 181 -55T109 -128L74 -93ZM265 -93Q274 -84 285 -73T305 -48T314 -22Q314 -8 302 1T277
25T264 65Q264 91 283 109T327 127Q364 127 384 101T404 40Q404 -12 373 -55T300 -128L265 -93Z" />
<glyph unicode="&#x2022;" horiz-adv-x="441" d="M221 495Q259 495 290 477T339 427T358 357Q358 319 340 288T290 238T221 219Q183 219 152 237T102 287T83 357Q83 395 101 426T151 476T221 495Z" />
<glyph unicode="&#x2039;" horiz-adv-x="298" d="M43 333L189 498L253 486L136 333L255 178L193 169L43 333Z" />
<glyph unicode="&#x203a;" horiz-adv-x="329" d="M270 331L121 168L58 176L178 331L61 484L125 497L270 331Z" />
</font>
</defs>
</svg>
